<?xml version="1.0" standalone="no"?>
<!DOCTYPE svg PUBLIC "-//W3C//DTD SVG 20010904//EN"
 "http://www.w3.org/TR/2001/REC-SVG-20010904/DTD/svg10.dtd">
<svg version="1.0" xmlns="http://www.w3.org/2000/svg"
 width="1280.000000pt" height="1092.000000pt" viewBox="0 0 1280.000000 1092.000000"
 preserveAspectRatio="xMidYMid meet">
<metadata>
Created by potrace 1.15, written by Peter Selinger 2001-2017
</metadata>
<g transform="translate(0.000000,1092.000000) scale(0.100000,-0.100000)"
fill="#000000" stroke="none">
<path d="M4295 10914 c-27 -2 -115 -8 -195 -14 -942 -69 -1814 -345 -2470
-783 -929 -621 -1475 -1519 -1606 -2642 -22 -187 -25 -678 -6 -865 51 -487
156 -933 329 -1400 113 -306 187 -440 458 -830 357 -515 460 -688 559 -938 94
-235 111 -345 103 -647 -9 -313 -45 -668 -118 -1180 -64 -454 -191 -1186 -259
-1499 -11 -49 -20 -96 -20 -103 0 -11 970 -13 5330 -13 3921 0 5330 3 5330 11
0 6 -14 77 -30 158 -146 698 -296 1687 -350 2296 -18 202 -24 531 -11 631 18
145 82 335 179 529 93 187 169 308 443 705 308 446 374 564 492 880 172 461
280 922 329 1400 19 187 16 680 -5 860 -57 479 -171 869 -366 1260 -590 1182
-1799 1941 -3406 2139 -300 37 -446 46 -795 46 -360 -1 -472 -8 -776 -51 -334
-47 -771 -159 -987 -254 l-42 -18 40 -17 c438 -185 830 -437 1119 -717 71 -69
84 -86 61 -77 -16 6 -44 8 -62 4 -26 -5 -33 -2 -33 10 0 20 -39 20 -47 -1 -4
-10 0 -22 9 -28 14 -10 14 -15 1 -40 -8 -16 -13 -42 -11 -58 l5 -29 -26 26
c-24 24 -25 27 -8 36 22 13 22 36 -1 48 -20 11 -42 -2 -42 -24 0 -7 -21 -1
-52 14 -42 21 -71 27 -140 29 -77 4 -94 1 -145 -23 -76 -34 -145 -103 -178
-177 -50 -112 -29 -262 50 -355 l34 -40 -47 4 c-33 3 -58 -1 -84 -15 -23 -12
-40 -16 -46 -10 -6 6 -13 5 -18 -3 -4 -7 -3 -14 4 -17 8 -2 8 -12 -3 -32 -21
-41 -19 -116 4 -154 42 -67 150 -93 209 -50 66 50 95 150 57 200 -24 32 -18
33 43 12 81 -29 180 -22 262 19 33 16 60 26 60 22 0 -4 7 -14 15 -23 13 -13
13 -18 -7 -50 -13 -19 -26 -35 -30 -36 -4 0 -18 11 -32 25 -31 30 -65 32 -100
4 -72 -56 17 -170 90 -114 10 8 27 15 37 15 18 0 25 20 7 20 -14 0 -12 27 3
32 6 2 24 -9 39 -24 l27 -28 -37 -19 c-94 -48 -172 -176 -172 -283 l0 -52 -25
51 c-14 28 -45 69 -69 91 l-43 40 27 6 c35 7 59 31 67 67 3 16 12 29 19 29 17
0 19 26 3 36 -6 3 -15 2 -21 -4 -7 -7 -16 -5 -28 5 -18 15 -18 17 2 43 16 22
18 32 9 48 -25 47 -91 34 -91 -18 0 -16 5 -32 11 -36 6 -3 -2 -14 -20 -25 -35
-21 -49 -61 -34 -100 l11 -27 -40 14 c-22 8 -71 14 -109 14 -96 0 -166 -28
-232 -93 l-52 -52 0 65 c0 41 -6 77 -17 97 -16 33 -16 33 7 27 13 -3 32 -1 43
5 17 9 20 7 24 -19 3 -18 0 -31 -9 -34 -15 -6 -18 -42 -4 -50 16 -10 41 5 41
25 0 12 7 19 20 19 11 0 27 11 36 25 15 23 15 27 -1 51 -13 21 -22 25 -44 21
-25 -5 -28 -3 -24 16 7 34 -27 70 -66 70 -40 0 -64 -23 -64 -61 l0 -30 -39 28
c-22 16 -52 31 -67 35 -20 4 -27 12 -27 28 1 29 -28 29 -32 1 -2 -16 -12 -23
-40 -27 -20 -3 -46 -8 -57 -12 -16 -7 -18 -6 -7 6 33 36 1 104 -55 115 -26 5
-37 1 -60 -22 -17 -17 -37 -27 -50 -26 -25 4 -36 -10 -27 -33 5 -11 14 -15 30
-11 17 5 24 1 29 -14 7 -23 60 -54 75 -45 19 12 10 -12 -11 -31 -94 -83 -70
-265 45 -341 37 -26 43 -33 26 -33 -12 0 -30 -5 -41 -10 -15 -8 -19 -7 -19 5
0 17 -25 20 -36 4 -3 -6 -2 -15 4 -21 6 -6 6 -20 -1 -41 -16 -44 -16 -44 -32
-20 -21 29 -75 46 -108 34 -42 -16 -67 -51 -67 -93 l0 -39 -46 35 c-76 58
-200 86 -284 63 -23 -6 -25 -3 -25 25 0 37 -26 58 -52 42 -25 -16 -29 -55 -6
-72 14 -11 15 -15 4 -19 -44 -17 -119 -94 -151 -158 -32 -62 -35 -75 -35 -154
1 -73 5 -95 28 -142 15 -31 36 -64 47 -74 29 -26 25 -31 -20 -27 -33 3 -44 -1
-70 -26 -65 -65 -22 -172 70 -172 69 0 116 68 92 132 -6 16 -8 28 -4 25 4 -2
26 -12 49 -23 30 -14 41 -24 40 -39 -1 -12 4 -20 13 -20 8 0 14 8 13 18 -1 12
4 17 14 13 8 -3 26 -6 39 -6 22 0 23 -2 14 -21 -9 -15 -8 -24 1 -35 28 -34 75
-2 51 36 -9 16 -6 19 26 25 120 22 224 116 266 239 6 17 9 15 24 -13 10 -18
29 -39 42 -47 14 -7 19 -13 12 -14 -8 0 -27 -14 -43 -31 -16 -17 -29 -26 -29
-21 0 17 -40 25 -55 12 -22 -18 -18 -48 6 -61 15 -8 24 -8 32 0 16 16 27 13
27 -6 1 -24 19 -47 52 -64 l27 -14 -40 -17 c-39 -16 -39 -16 -39 6 0 46 -44
61 -75 26 -15 -17 -16 -24 -7 -45 7 -15 20 -25 33 -25 19 0 18 -4 -14 -39 -20
-22 -44 -55 -53 -73 -16 -31 -17 -32 -25 -10 -5 12 -13 22 -19 22 -5 0 -10 5
-10 10 0 6 7 10 15 10 19 0 20 19 1 26 -11 4 -12 12 -7 27 24 64 -61 115 -109
67 -29 -29 -26 -74 7 -100 15 -12 35 -19 45 -17 11 3 18 0 18 -9 0 -8 -5 -14
-10 -14 -6 0 -15 -11 -21 -24 -20 -44 26 -90 68 -68 17 9 18 5 15 -59 l-4 -69
-21 31 c-42 62 -136 88 -199 55 -27 -14 -28 -14 -28 8 0 13 -9 31 -20 41 -27
24 -73 10 -78 -23 -2 -13 -10 -26 -18 -29 -32 -12 -3 -28 66 -36 14 -1 13 -8
-5 -54 -11 -29 -26 -53 -32 -53 -7 0 -13 4 -13 10 0 5 -9 14 -21 20 -43 24
-92 -43 -57 -78 19 -19 55 -14 72 9 20 29 32 22 58 -31 24 -47 83 -90 126 -90
19 0 21 -2 10 -19 -9 -15 -9 -23 1 -35 30 -36 87 -3 62 36 -7 11 -11 21 -9 22
40 26 60 37 63 34 1 -2 8 -13 14 -25 8 -16 21 -23 42 -23 22 0 32 6 38 23 12
30 -10 62 -41 62 -23 -1 -24 2 -15 30 6 16 12 36 14 44 2 9 12 -2 24 -26 72
-146 246 -224 401 -179 64 18 145 75 179 124 13 19 25 29 27 23 5 -14 29 -14
38 1 4 6 0 16 -8 22 -14 10 -14 19 -4 58 14 58 22 66 30 35 8 -34 69 -85 109
-92 52 -10 111 11 146 50 l31 35 6 -25 c13 -53 86 -73 124 -35 18 18 20 18 20
3 0 -10 3 -35 6 -55 5 -31 4 -38 -10 -38 -9 0 -16 -5 -16 -12 0 -6 -9 -3 -21
8 -17 15 -23 16 -41 5 -17 -11 -22 -10 -35 8 -17 25 -36 27 -57 5 -15 -14 -19
-13 -47 10 -53 45 -127 30 -158 -32 l-12 -23 -20 25 c-28 35 -71 35 -98 0 -12
-15 -21 -32 -21 -39 0 -7 9 -24 21 -39 25 -32 68 -35 94 -6 17 19 18 19 39
-13 57 -85 173 -65 192 33 5 21 11 25 42 25 20 0 41 -6 45 -12 13 -21 58 -16
64 8 3 11 11 18 18 15 7 -2 17 0 23 6 6 6 17 -7 33 -38 81 -167 286 -235 459
-152 63 31 136 108 157 167 15 42 21 49 43 48 19 -2 25 3 25 18 0 15 -6 19
-24 17 -18 -2 -22 2 -17 14 3 8 6 27 6 40 0 22 2 23 20 12 27 -17 54 0 58 35
4 36 -39 59 -65 34 -17 -14 -19 -12 -39 39 -12 30 -17 54 -13 54 5 0 9 7 9 16
0 10 -6 14 -17 10 -12 -3 -26 6 -41 25 l-24 29 32 0 c36 0 80 38 80 69 0 78
-84 118 -136 65 -21 -20 -25 -33 -22 -63 l3 -38 -55 26 c-45 21 -70 25 -135
25 -93 0 -165 -27 -232 -87 l-39 -36 -1 36 c-2 52 -49 98 -103 98 -32 0 -47
-7 -72 -33 -27 -26 -32 -39 -32 -74 1 -34 8 -47 33 -70 33 -30 85 -37 122 -18
22 12 23 10 10 -22 -5 -13 -12 -32 -16 -43 -6 -18 -7 -18 -18 5 -26 51 -108
51 -135 0 -12 -24 -12 -23 -6 12 18 108 -89 201 -196 169 -40 -12 -99 -70
-101 -99 -1 -9 -7 3 -15 27 -7 24 -16 51 -19 60 -4 13 1 17 21 16 16 0 32 8
40 21 13 19 12 24 -5 45 -16 21 -22 22 -45 11 -14 -6 -26 -19 -26 -27 0 -10
-21 5 -52 38 -71 72 -132 100 -232 107 -78 5 -78 5 -57 24 31 28 29 89 -4 122
-28 28 -30 34 -12 34 28 0 67 55 67 94 0 48 -13 72 -50 91 -46 24 -87 19 -120
-13 l-28 -29 -4 38 c-3 36 -3 37 27 32 21 -3 35 0 44 11 17 21 6 63 -19 71
-22 7 -60 -10 -60 -28 0 -10 -40 68 -40 79 0 1 13 -2 29 -7 42 -15 96 10 117
54 l16 34 27 -26 26 -26 -22 -22 c-28 -27 -28 -34 -4 -64 16 -20 23 -22 47
-14 32 11 45 55 23 81 -9 12 -6 14 18 14 32 0 77 37 89 72 11 36 -5 86 -36
110 l-29 23 62 0 c50 0 72 6 109 28 26 15 54 37 63 50 16 21 17 21 8 -13 -4
-19 -8 -70 -7 -112 0 -76 0 -77 -18 -61 -11 9 -35 17 -55 17 -44 0 -83 -40
-83 -85 0 -42 48 -89 90 -89 36 0 80 38 80 70 0 29 16 25 30 -10 27 -65 165
-160 233 -160 32 0 31 1 13 -35 -22 -43 3 -85 49 -85 45 0 72 63 40 90 -22 18
-18 30 10 30 30 0 100 27 138 52 l27 19 0 -26 c0 -18 8 -29 25 -37 22 -10 29
-9 47 10 19 18 20 25 10 47 -7 15 -20 25 -32 25 -26 0 -25 4 6 45 36 48 64
127 64 183 l0 47 30 -51 c16 -29 49 -69 73 -90 42 -37 43 -39 23 -49 -44 -22
-19 -93 28 -81 16 4 22 1 23 -13 1 -14 -4 -17 -22 -13 -32 6 -75 -37 -75 -76
0 -28 35 -72 58 -72 6 0 9 -7 6 -15 -5 -12 -15 -7 -48 23 -139 128 -376 40
-394 -146 l-4 -49 -24 24 c-46 46 -134 12 -134 -52 0 -29 40 -75 65 -75 24 0
48 -28 41 -47 -4 -9 1 -27 9 -40 24 -36 75 -29 95 13 15 29 16 29 34 13 37
-35 90 -53 157 -54 56 0 73 4 114 30 96 59 144 174 113 268 -14 45 -14 46 6
49 23 3 34 37 16 48 -8 5 -4 15 14 33 28 28 31 42 17 81 -12 30 5 48 38 39 19
-5 22 -2 19 13 -2 10 -10 19 -18 19 -8 0 -19 6 -23 13 -4 6 -17 12 -27 12 -11
0 -20 4 -20 9 0 5 -3 16 -6 24 -5 13 0 13 38 0 65 -22 190 -14 253 17 104 50
174 153 191 279 6 46 9 50 29 45 28 -7 49 18 43 51 -3 14 -2 25 2 25 16 0 20
34 6 48 -13 13 -18 13 -31 2 -9 -7 -14 -20 -13 -29 2 -9 -6 -21 -17 -26 -18
-10 -23 -4 -52 56 -18 37 -49 81 -68 98 -40 35 -42 41 -16 41 11 0 22 6 24 13
3 7 6 4 6 -6 3 -61 73 -115 132 -102 40 9 79 58 79 101 0 28 4 34 20 34 27 0
37 28 17 48 -15 14 -18 14 -35 -1 -17 -16 -20 -16 -32 -2 -10 13 -9 15 9 15
30 0 61 35 61 70 0 63 -75 93 -118 47 -23 -24 -30 -71 -12 -82 20 -12 10 -25
-20 -25 -18 0 -42 -11 -63 -29 -32 -29 -34 -29 -45 -10 -26 40 -89 13 -80 -34
l5 -24 -51 20 c-34 12 -75 19 -123 19 l-71 -1 16 29 c16 27 16 30 -4 57 -11
15 -32 30 -45 33 -16 4 -20 8 -11 14 19 11 14 46 -8 54 -19 7 -19 9 -4 30 l16
23 15 -20 c17 -26 49 -27 62 -3 12 23 -4 52 -31 52 -15 0 -18 4 -13 18 45 108
45 196 0 304 -6 15 -4 15 28 0 23 -12 32 -22 29 -34 -3 -13 2 -18 18 -18 17 0
21 4 17 19 -4 16 9 31 27 31 1 0 1 -14 -2 -30 -2 -17 1 -37 8 -45 15 -18 61
-20 79 -2 10 10 14 9 22 -5 12 -22 42 -23 60 -2 18 22 -1 49 -36 49 -19 1 -30
8 -36 23 -5 12 -19 24 -33 28 -24 6 -25 6 -9 40 13 27 14 40 5 69 -9 33 -9 35
5 23 37 -30 191 -210 270 -315 176 -235 330 -509 437 -779 87 -220 129 -377
193 -709 5 -29 5 -30 -14 -12 -25 22 -46 22 -66 -1 -20 -22 -22 -53 -5 -70 17
-17 67 -15 74 3 12 31 24 13 24 -36 0 -41 -3 -49 -13 -41 -17 15 -40 -1 -35
-24 2 -13 12 -19 27 -18 23 1 24 0 17 -73 -5 -67 -30 -185 -43 -205 -2 -5 -11
-1 -20 7 -19 19 -42 16 -57 -7 -16 -25 5 -53 37 -51 25 2 25 1 11 -34 -15 -34
-14 -36 28 -101 60 -93 232 -321 394 -522 129 -161 136 -172 118 -185 -15 -11
-17 -16 -6 -27 10 -10 17 -10 31 -1 17 10 23 7 46 -22 25 -33 25 -35 6 -35
-30 0 -55 -43 -41 -69 6 -12 16 -21 22 -21 7 0 7 -5 -2 -14 -6 -8 -10 -25 -8
-38 2 -18 9 -23 33 -23 24 0 31 5 33 23 2 13 -1 28 -6 35 -6 8 -3 21 8 39 l17
28 125 -158 c465 -584 614 -861 557 -1033 -16 -47 -63 -107 -118 -151 -62 -48
-278 -162 -335 -177 -64 -16 -76 -14 -40 8 99 60 112 176 29 258 -23 24 -39
43 -35 43 16 0 19 30 4 44 -20 21 -44 9 -44 -21 0 -19 -4 -23 -18 -19 -9 3
-33 1 -52 -4 -27 -8 -36 -7 -43 5 -9 17 -33 20 -42 5 -4 -6 -1 -17 5 -25 10
-12 7 -21 -14 -45 -47 -56 -47 -144 1 -200 29 -35 72 -60 105 -61 22 0 22 -1
3 -8 -11 -4 -35 -11 -54 -14 -25 -5 -32 -4 -28 6 8 21 -5 33 -40 40 -37 7 -39
4 -18 -37 9 -16 14 -30 13 -31 -77 -50 -98 -81 -98 -147 0 -42 -1 -43 -32 -43
-27 0 -34 -4 -36 -23 -7 -45 35 -67 68 -37 16 15 19 10 43 -67 14 -46 29 -99
32 -119 5 -37 37 -91 119 -208 35 -51 50 -81 53 -115 5 -40 3 -46 -11 -40 -10
4 -18 0 -22 -10 -3 -9 -12 -16 -20 -16 -8 0 -14 -5 -14 -11 0 -6 -6 -9 -12 -6
-7 2 -13 10 -13 17 0 7 -6 15 -13 18 -6 2 -12 -1 -12 -7 0 -6 -8 -11 -19 -11
-10 0 -30 -9 -45 -21 -58 -45 -16 -147 57 -136 32 4 30 2 -47 -56 l-58 -44
-24 24 c-33 33 -69 19 -69 -28 0 -19 -6 -39 -14 -45 -8 -6 -12 -20 -9 -31 5
-18 0 -21 -44 -26 -64 -8 -132 -48 -164 -97 -24 -36 -27 -37 -43 -22 -9 10
-15 27 -13 39 3 15 -2 25 -13 29 -22 9 -50 -9 -49 -30 1 -11 -13 -3 -43 25
-25 22 -72 54 -106 70 -34 15 -57 28 -51 29 18 0 25 29 13 51 -7 14 -19 19
-37 17 -24 -3 -27 -7 -26 -39 1 -32 -1 -35 -21 -31 -12 2 -50 -3 -84 -12 -35
-9 -64 -16 -65 -16 -1 0 0 16 2 36 3 25 8 34 18 30 44 -17 88 40 64 84 -9 17
-19 21 -48 18 -32 -3 -38 -7 -46 -35 -9 -28 -13 -31 -42 -26 -38 6 -74 -23
-74 -60 0 -34 28 -67 56 -67 22 0 20 -4 -28 -53 l-53 -53 -17 28 c-17 26 -33
33 -68 28 -11 -1 -9 4 6 22 27 29 50 74 58 114 5 24 12 31 25 27 9 -2 23 3 30
11 19 23 -4 49 -36 41 -16 -4 -23 -1 -23 9 0 8 -3 21 -6 29 -4 11 2 16 22 19
17 2 33 12 39 24 10 20 13 21 35 8 34 -19 91 -17 120 3 17 12 25 13 28 5 2 -7
12 -12 22 -12 10 0 20 -7 24 -15 7 -19 30 -19 45 -1 18 22 2 48 -28 44 -37 -3
-53 9 -41 32 15 28 12 78 -6 110 -18 30 -62 60 -91 61 -10 0 7 11 37 25 92 42
172 135 194 229 14 57 7 151 -15 211 -37 100 -146 189 -254 210 -30 5 -34 9
-21 16 9 5 16 22 16 39 0 17 4 28 9 25 4 -3 17 1 27 9 15 11 17 18 8 31 -16
26 -31 28 -51 5 -9 -12 -27 -21 -40 -21 -45 0 -67 -48 -38 -81 15 -15 13 -17
-27 -23 -129 -19 -246 -127 -278 -256 -10 -40 -15 -46 -38 -45 -20 0 -27 -5
-27 -20 0 -15 7 -20 27 -20 24 1 27 -4 32 -46 9 -66 60 -162 108 -204 64 -54
123 -79 208 -85 56 -4 69 -8 52 -14 -47 -16 -78 -107 -53 -155 8 -15 6 -17
-19 -13 -21 3 -31 -1 -40 -18 l-12 -22 -31 30 c-84 82 -227 83 -310 4 -52 -49
-69 -97 -65 -178 3 -62 8 -78 36 -117 l32 -45 -47 14 c-25 8 -57 14 -71 14
-24 0 -24 1 -9 18 42 46 -3 116 -61 96 -41 -14 -51 -57 -24 -94 l23 -30 -24 0
c-13 0 -46 -11 -73 -25 -27 -14 -50 -25 -51 -25 -1 0 4 13 9 28 38 101 -96
179 -174 102 -26 -26 -30 -36 -26 -74 l3 -44 -42 3 c-31 2 -43 -1 -43 -11 0
-8 5 -14 10 -14 6 0 10 -8 10 -18 0 -25 19 -42 47 -42 22 0 48 31 36 44 -10
10 2 7 41 -9 21 -9 47 -13 62 -9 26 7 26 6 -9 -39 -48 -63 -62 -108 -62 -202
0 -71 4 -88 33 -147 36 -73 87 -124 161 -160 37 -19 63 -23 136 -23 50 0 100
4 112 8 18 7 21 5 16 -14 -8 -29 22 -52 48 -38 11 5 19 16 19 24 0 17 9 19 29
6 18 -12 39 -4 52 20 13 25 -5 59 -32 59 -18 0 -15 6 20 46 54 62 81 136 81
226 0 56 3 69 12 60 33 -33 108 3 108 51 0 79 -109 93 -132 17 -3 -10 -11 -1
-23 24 -10 22 -35 56 -54 76 l-36 38 55 -5 c38 -4 67 0 94 11 49 20 47 21 40
-13 -9 -42 26 -75 70 -68 l33 5 -14 -51 c-17 -61 -11 -158 12 -214 10 -24 11
-33 4 -25 -7 6 -30 12 -50 12 -43 0 -79 -35 -79 -77 0 -29 42 -73 69 -73 18 0
20 -4 14 -32 -5 -23 -2 -34 12 -44 17 -12 16 -14 -9 -24 -38 -14 -49 -13 -42
6 9 23 -37 64 -63 57 -47 -12 -50 -75 -5 -95 l23 -11 -23 -28 c-38 -44 -59
-112 -54 -167 4 -43 3 -49 -12 -45 -11 3 -16 11 -13 23 3 10 -1 28 -7 40 -9
18 -9 28 1 46 9 18 10 27 1 36 -15 15 -42 2 -42 -21 0 -14 -5 -18 -20 -14 -11
3 -32 -3 -47 -13 -16 -11 -37 -19 -47 -19 -27 0 -33 -25 -7 -32 12 -3 21 -13
21 -22 0 -24 42 -61 69 -61 12 0 31 4 41 10 13 7 19 6 24 -5 3 -10 -1 -15 -12
-15 -33 0 -80 -38 -92 -74 -9 -29 -9 -41 3 -64 l14 -29 -51 20 c-41 15 -68 18
-136 15 -91 -5 -138 -22 -201 -75 -27 -23 -32 -24 -25 -8 5 11 17 43 27 70 10
28 18 45 18 38 1 -18 40 -26 57 -12 23 19 14 63 -14 67 -13 2 -29 -1 -36 -7
-11 -9 -14 0 -19 42 -12 117 -102 235 -212 276 -50 19 -74 22 -145 18 -47 -2
-93 -8 -102 -12 -13 -5 -18 -3 -18 9 0 10 -8 15 -22 15 -13 0 -32 2 -44 6 -13
4 -27 1 -37 -9 -10 -11 -18 -12 -22 -6 -5 8 -11 7 -21 -1 -11 -9 -11 -15 -3
-25 6 -8 15 -11 20 -8 5 3 20 -3 34 -14 l24 -19 -35 -34 c-98 -94 -126 -268
-63 -391 32 -62 96 -125 158 -155 49 -25 67 -28 151 -28 100 0 139 13 216 71
l32 23 -19 -49 c-27 -71 -25 -169 5 -242 13 -32 20 -58 16 -58 -5 0 -16 -7
-24 -16 -12 -12 -13 -20 -6 -35 14 -25 35 -24 53 1 14 19 14 19 37 -5 16 -17
24 -38 24 -63 1 -28 6 -38 20 -40 10 -2 23 1 30 8 8 9 5 16 -13 31 -30 24 -20
24 27 0 48 -25 143 -42 185 -34 l32 6 -44 -34 c-60 -46 -91 -107 -91 -179 l0
-57 -33 10 -33 11 23 22 c13 13 23 31 23 41 0 30 -28 61 -60 68 -16 4 -28 12
-27 18 1 7 -7 11 -18 10 -14 -1 -25 9 -35 30 -9 19 -31 40 -54 51 -36 17 -43
18 -79 5 -54 -19 -82 -59 -81 -113 1 -39 -1 -42 -23 -38 -36 7 -73 -23 -73
-58 0 -34 30 -70 59 -70 29 0 64 33 64 61 0 25 0 25 33 10 38 -18 42 -27 14
-36 -78 -25 -79 -168 -2 -209 27 -15 26 -15 -28 -16 -30 0 -83 -6 -117 -14
-58 -12 -63 -11 -63 4 0 28 -27 45 -45 30 -17 -14 -20 -46 -5 -55 6 -4 -17
-20 -50 -38 -77 -39 -168 -121 -218 -196 l-39 -58 -10 28 c-14 36 -54 47 -88
25 -24 -16 -25 -16 -25 9 0 15 -5 35 -11 46 -6 12 -8 27 -5 35 4 11 12 10 41
-7 71 -42 174 -9 210 67 21 45 16 114 -12 153 -29 40 -104 74 -146 66 -55 -11
-96 -42 -117 -88 -25 -53 -25 -83 -1 -130 10 -20 15 -39 11 -42 -4 -2 -26 3
-49 13 -30 12 -40 22 -37 34 6 25 -20 44 -38 28 -8 -6 -13 -17 -10 -25 4 -8
-7 -17 -30 -25 -40 -13 -93 -68 -102 -106 -4 -14 -4 -44 -1 -66 l6 -41 -25 44
c-14 24 -43 65 -64 90 -37 44 -38 47 -19 52 25 7 23 45 -4 61 -15 9 -22 7 -36
-11 l-18 -21 -51 35 c-69 46 -153 79 -236 94 l-67 11 20 22 c28 30 26 61 -4
91 -31 32 -59 32 -90 0 -30 -30 -31 -54 -4 -89 l20 -26 -118 1 -118 0 50 18
c94 32 161 86 208 169 l24 42 11 -25 c6 -13 22 -27 36 -31 21 -5 23 -9 13 -24
-8 -13 -8 -27 -1 -47 8 -23 15 -28 44 -28 26 0 37 6 47 24 14 29 1 61 -28 68
-18 5 -18 7 -5 22 29 32 20 95 -15 106 l-21 7 21 19 c12 11 21 26 21 34 0 21
-29 45 -54 45 -43 0 -61 -46 -31 -80 12 -14 12 -17 -4 -27 -17 -11 -19 -6 -23
65 -5 87 -29 149 -77 204 -30 34 -41 55 -23 44 13 -8 52 23 52 42 0 10 10 2
25 -21 14 -20 31 -37 37 -37 7 0 4 -6 -6 -13 -22 -16 -17 -50 8 -55 21 -4 38
16 31 37 -4 9 0 11 11 7 8 -3 27 -6 40 -6 15 0 24 -6 24 -16 0 -9 6 -14 13
-11 6 2 11 9 10 15 -2 6 7 14 20 17 12 4 39 20 59 36 23 18 39 25 43 19 4 -6
14 -10 23 -9 10 1 25 -1 35 -6 26 -11 49 12 36 37 -6 12 -17 17 -26 14 -8 -3
-24 -4 -36 0 -20 4 -22 11 -22 68 0 53 -4 68 -28 99 -36 48 -75 67 -132 67
-54 0 -108 -22 -134 -56 -15 -19 -20 -21 -25 -9 -7 20 -45 19 -52 0 -7 -18 15
-48 31 -42 7 3 11 -13 11 -49 -1 -33 -5 -49 -11 -43 -5 5 -18 9 -30 9 -18 0
-20 5 -17 36 9 72 -72 111 -123 59 -32 -31 -32 -69 1 -102 20 -20 32 -24 57
-20 29 4 32 2 32 -19 0 -28 1 -28 -28 -9 -12 8 -51 22 -87 31 -70 18 -123 15
-203 -12 -59 -20 -156 -107 -182 -163 -17 -39 -19 -40 -32 -21 -20 28 -59 26
-78 -4 -27 -41 13 -89 55 -66 10 6 20 10 22 10 2 0 3 -36 3 -79 0 -62 -3 -77
-12 -69 -22 18 -46 1 -40 -28 3 -18 -2 -33 -14 -45 -25 -25 -24 -42 4 -75 30
-35 74 -28 90 15 l11 29 47 -52 c42 -46 81 -70 167 -102 32 -13 -841 -5 -904
7 l-52 10 29 29 c35 35 36 54 4 85 -29 30 -58 32 -85 5 -22 -22 -25 -51 -9
-82 10 -18 8 -19 -13 -13 -85 26 -202 86 -273 139 -88 65 -243 229 -202 213
22 -8 35 19 18 36 -10 9 -15 8 -25 -6 -13 -16 -15 -16 -30 7 -18 28 -21 40 -7
32 28 -17 57 23 41 55 -14 25 -45 24 -64 -2 -14 -21 -16 -18 -37 51 -19 63
-21 87 -16 179 3 58 12 128 19 155 12 42 15 46 27 32 27 -33 79 -8 66 33 -8
25 -31 34 -57 20 -11 -6 -18 -7 -16 -2 3 4 40 112 82 239 61 186 76 243 76
292 0 113 -50 208 -205 385 -78 90 -85 101 -85 141 0 50 27 93 125 197 34 37
65 79 69 94 8 33 -2 46 -79 101 -30 21 -55 42 -55 45 0 4 9 9 21 12 28 7 22
48 -8 62 -13 5 -23 15 -23 22 0 16 -26 17 -36 1 -4 -6 0 -16 8 -22 9 -7 12
-18 8 -30 -5 -16 -9 -15 -35 15 -15 19 -35 50 -43 69 -20 49 -12 136 17 184
23 37 24 37 35 14 9 -17 20 -23 44 -23 23 0 31 -4 27 -13 -3 -8 -5 -34 -5 -58
0 -24 -3 -43 -7 -43 -21 3 -33 -2 -33 -15 0 -21 18 -30 34 -17 10 8 17 2 31
-30 11 -22 36 -56 58 -74 34 -30 36 -34 19 -39 -41 -14 -26 -86 18 -86 23 0
53 41 45 62 -5 13 2 14 45 10 144 -14 260 91 260 234 -1 137 -99 234 -237 234
-70 0 -131 -27 -176 -80 -32 -38 -32 -38 -55 -20 -14 11 -30 16 -40 12 -16 -6
-16 -4 1 18 42 60 77 128 82 160 4 19 20 79 37 133 26 85 32 97 49 92 12 -4
21 -1 25 8 3 9 14 12 30 9 30 -5 54 13 54 42 0 30 -18 46 -52 46 -29 0 -54
-31 -44 -56 3 -8 -1 -14 -9 -14 -10 0 -15 11 -15 35 0 20 -7 49 -15 65 -13 25
-13 29 1 34 9 4 14 15 12 28 -4 30 -47 38 -54 10 -5 -18 -7 -18 -39 -3 -38 18
-45 31 -17 31 10 0 29 12 43 26 48 51 19 144 -49 157 -34 7 -87 -15 -101 -41
-18 -33 -13 -87 10 -116 l21 -27 -23 5 c-13 3 -53 10 -89 16 -85 13 -103 19
-180 60 -56 30 -62 35 -40 38 38 6 60 31 60 69 0 38 -29 73 -61 73 -20 0 -20
1 5 30 29 35 41 85 32 135 -9 44 -64 103 -105 111 -31 7 -32 7 -12 25 26 25
34 54 21 79 -6 11 -7 20 -2 20 5 0 14 -11 20 -25 20 -44 82 -28 82 22 0 28
-33 48 -58 34 -13 -7 -23 -6 -31 2 -10 9 -15 9 -24 -3 -7 -9 -24 -14 -44 -12
-64 6 -96 -66 -50 -112 l23 -23 -32 -12 c-35 -13 -84 -63 -84 -87 0 -8 -7 -14
-15 -14 -8 0 -15 -4 -15 -10 0 -5 4 -10 9 -10 4 0 11 -19 14 -42 11 -79 75
-132 160 -131 35 1 46 -2 38 -10 -14 -14 -14 -52 -1 -77 10 -18 8 -18 -27 2
-101 58 -178 137 -202 207 -38 115 23 289 192 542 81 121 219 311 222 306 1
-1 5 -23 7 -49 4 -36 2 -48 -8 -48 -17 0 -25 -15 -18 -34 8 -20 43 -21 50 -2
4 11 11 11 46 -1 36 -12 44 -12 77 4 50 25 77 80 61 128 -16 48 -53 75 -104
75 -23 0 -47 -5 -54 -12 -7 -7 -12 -9 -12 -5 0 9 318 407 325 407 2 0 2 -6 -1
-14 -8 -20 12 -53 37 -61 15 -5 18 -10 10 -18 -8 -8 -14 -6 -23 6 -9 12 -17
14 -28 7 -12 -7 -12 -12 -3 -21 10 -10 5 -21 -22 -50 -19 -21 -47 -62 -62 -91
-24 -47 -28 -64 -28 -143 0 -107 24 -170 85 -230 l39 -39 -29 -18 c-22 -13
-30 -25 -30 -47 0 -20 -5 -28 -16 -27 -21 1 -39 -27 -31 -48 9 -22 44 -20 59
4 8 12 24 20 38 20 14 0 30 4 36 9 5 4 16 1 26 -10 15 -16 13 -18 -41 -38 -69
-25 -132 -77 -167 -137 -24 -41 -27 -43 -39 -27 -12 16 -11 19 8 23 13 4 26
18 32 35 6 17 16 30 24 30 8 0 19 8 25 18 9 15 7 22 -9 35 -12 10 -19 26 -17
40 2 13 -2 30 -8 38 -15 17 -51 19 -67 3 -7 -7 -14 -1 -22 22 -8 25 -8 34 0
40 7 4 9 14 6 23 -7 17 -23 21 -31 7 -3 -5 -27 2 -53 15 -56 29 -85 30 -139 5
-83 -38 -117 -137 -75 -218 22 -43 74 -83 110 -83 27 0 26 -4 -4 -34 -14 -14
-25 -36 -25 -49 0 -29 35 -77 56 -77 20 0 17 -14 -6 -35 -13 -12 -20 -31 -20
-57 0 -21 -5 -47 -12 -58 -15 -24 -3 -38 20 -23 14 8 23 7 37 -3 29 -21 70
-17 104 12 25 20 31 34 31 64 0 44 -28 85 -65 94 l-26 7 21 26 c34 43 23 90
-28 117 -17 10 -21 15 -11 16 9 0 33 11 53 25 32 22 36 22 36 7 0 -10 5 -23
11 -29 8 -8 5 -14 -10 -22 -40 -22 -17 -90 26 -79 16 4 18 -4 18 -86 0 -77 4
-99 26 -146 34 -72 97 -135 167 -168 54 -26 56 -28 40 -45 -10 -9 -18 -21 -18
-26 0 -16 31 -41 51 -41 26 0 47 44 30 64 -10 12 0 14 61 18 168 9 303 132
324 295 6 52 7 52 24 30 18 -21 18 -23 -1 -43 -23 -25 -24 -47 -3 -68 24 -24
61 -20 80 9 15 22 15 27 1 48 -14 22 -13 24 14 40 18 10 32 27 35 45 3 15 15
32 27 37 27 12 28 34 4 49 -14 9 -21 7 -30 -5 -11 -15 -15 -15 -41 -2 -26 14
-33 14 -63 -1 -18 -8 -33 -22 -33 -31 0 -30 -18 -14 -24 23 -9 56 -61 137
-114 180 -27 21 -47 43 -44 50 2 7 -1 12 -7 12 -6 0 -11 -4 -11 -10 0 -5 -19
-2 -42 6 -24 9 -70 16 -104 17 -54 2 -60 4 -51 18 15 24 1 52 -22 46 -12 -3
-22 1 -26 11 -8 22 -4 23 45 6 93 -32 194 -27 274 13 39 20 112 88 137 130 21
33 22 34 36 14 26 -38 83 -21 83 25 0 28 -24 47 -52 42 -23 -4 -23 -2 -23 86
0 77 -4 100 -26 146 -36 77 -78 121 -151 160 -70 38 -172 51 -242 32 -30 -9
-37 -9 -28 0 34 34 -9 105 -55 93 l-25 -6 21 29 c34 48 46 54 48 24 1 -31 27
-52 63 -52 58 0 84 84 35 116 -14 9 -34 14 -45 11 -11 -3 -20 -3 -20 -1 0 2
51 68 113 147 62 78 139 177 171 219 51 68 60 76 73 63 19 -20 40 -19 52 3 11
21 -3 52 -25 52 -9 0 1 22 31 68 l45 68 -26 69 c-22 61 -23 67 -6 52 40 -37
112 -6 112 48 0 33 -33 65 -68 65 -30 0 -62 -26 -62 -50 0 -31 -14 5 -26 67
-55 285 79 861 307 1316 159 317 350 585 598 841 164 168 384 357 516 442 l29
19 -17 -25 c-60 -86 40 -196 134 -147 24 13 26 12 35 -18 9 -28 7 -34 -9 -44
-13 -9 -18 -20 -14 -37 3 -20 1 -24 -12 -19 -9 4 -41 12 -71 18 -44 10 -55 16
-55 32 0 13 -7 20 -20 20 -14 0 -19 -6 -18 -21 2 -18 -5 -23 -35 -29 -104 -19
-201 -96 -248 -198 -24 -52 -29 -74 -28 -142 0 -89 20 -147 75 -216 21 -27 26
-39 16 -39 -8 0 -20 -7 -27 -15 -10 -12 -10 -18 0 -30 18 -22 51 -19 57 5 7
25 3 25 56 -3 24 -13 54 -27 67 -30 21 -5 21 -7 6 -22 -31 -32 -13 -75 31 -75
29 0 50 39 35 66 -9 17 -5 19 42 21 60 3 124 23 166 53 l29 20 6 -20 c3 -11
15 -20 25 -20 25 0 35 31 15 46 -15 11 -15 14 0 38 20 31 29 34 20 7 -10 -32
13 -71 50 -87 31 -13 39 -13 66 2 17 8 34 24 36 35 8 29 16 23 45 -32 19 -36
22 -47 9 -35 -46 42 -128 -4 -119 -66 3 -16 4 -28 2 -28 -1 0 -26 11 -55 25
-74 34 -142 40 -220 21 -115 -29 -200 -106 -241 -218 l-21 -60 -17 55 c-10 30
-27 69 -39 86 l-22 31 24 0 c57 0 77 81 26 109 -24 13 -29 13 -53 -2 -18 -12
-26 -26 -26 -47 l0 -30 -42 30 c-72 53 -178 72 -270 51 -34 -8 -38 -7 -38 10
0 10 -4 19 -10 19 -5 0 1 15 13 34 17 26 26 32 39 25 10 -6 14 -16 11 -29 -6
-23 22 -39 40 -21 9 9 9 16 0 31 -10 14 -10 19 0 23 19 6 47 -4 47 -18 0 -6 8
-19 18 -28 70 -63 174 10 138 98 -8 18 -23 36 -35 40 -20 6 -20 6 0 26 15 15
17 24 9 39 -14 26 -27 32 -50 25 -23 -7 -36 -43 -21 -58 17 -17 13 -24 -14
-31 -13 -3 -32 -20 -40 -36 -19 -37 -28 -38 -43 -5 -14 29 -47 33 -74 8 -11
-10 -18 -12 -18 -4 0 7 -12 23 -26 36 -53 49 -154 18 -167 -52 -12 -64 43
-127 105 -121 20 2 39 -3 48 -12 14 -13 10 -18 -35 -45 -181 -109 -208 -372
-54 -526 64 -64 138 -93 234 -94 67 0 90 5 140 28 98 46 159 117 190 222 l12
40 17 -55 c21 -72 73 -142 139 -184 173 -114 408 -47 495 143 39 83 38 192 -2
278 -15 34 -37 70 -47 79 -26 23 -24 32 5 27 36 -7 80 39 74 77 l-4 28 41 -34
c73 -59 129 -79 225 -79 67 0 95 5 134 23 42 19 50 20 60 7 7 -10 16 -12 25
-6 12 8 12 13 3 24 -10 11 -5 21 23 52 20 20 48 60 63 89 23 45 27 62 27 146
0 82 -4 102 -25 146 l-26 52 36 -5 c51 -7 90 26 90 76 0 49 -32 81 -82 81 -44
0 -78 -36 -78 -83 l0 -31 -27 26 c-33 32 -128 77 -163 79 -18 0 -9 6 30 20
109 39 195 126 223 227 9 34 16 42 34 42 16 0 23 6 23 20 0 13 -7 20 -19 20
-15 0 -19 10 -25 56 -22 191 -206 327 -394 293 -63 -12 -139 -49 -173 -85
l-22 -24 -11 23 c-14 26 -44 29 -60 5 -14 -22 4 -54 28 -52 10 1 15 -1 14 -5
-43 -81 -51 -110 -52 -192 -1 -84 -2 -86 -21 -73 -28 20 -58 17 -90 -8 -25
-20 -28 -20 -37 -4 -13 24 -48 35 -77 25 -21 -9 -23 -7 -17 16 4 14 0 40 -8
60 -18 41 -73 70 -115 60 -23 -5 -22 -3 9 18 157 109 409 242 645 342 l40 17
-42 18 c-76 34 -307 108 -443 144 -271 71 -487 109 -794 142 -133 14 -707 27
-821 18z m1681 -985 c38 -14 83 6 99 44 l12 29 27 -45 c36 -63 106 -117 185
-144 36 -12 57 -23 46 -23 -11 0 -47 -13 -80 -29 -117 -55 -195 -176 -195
-302 l0 -60 -26 20 c-30 24 -55 26 -86 10 -19 -10 -20 -9 -13 7 4 11 15 46 23
78 17 66 8 157 -22 217 -9 18 -16 33 -16 33 0 1 17 1 37 1 41 0 54 -15 46 -52
-8 -34 19 -29 46 7 27 37 24 64 -7 68 -16 3 -22 10 -22 30 0 15 -4 32 -8 38
-12 18 -53 36 -69 30 -8 -4 -22 3 -33 16 -15 18 -22 21 -36 12 -10 -6 -19 -15
-21 -21 -5 -14 26 -45 37 -38 5 3 8 -8 8 -24 l-1 -30 -47 42 c-45 40 -46 42
-26 52 14 7 21 20 21 38 -1 19 4 27 17 27 10 0 26 9 35 20 17 19 17 19 30 -10
6 -17 24 -35 39 -41z m1007 -2076 c2 -10 8 -25 11 -33 5 -12 -1 -15 -26 -14
-49 2 -50 2 -28 24 11 11 20 25 20 30 0 17 17 11 23 -7z m-3446 -2126 c12 5
13 3 3 -13 -7 -12 -23 -19 -41 -19 -32 0 -31 0 -23 32 6 20 8 21 26 9 11 -8
27 -12 35 -9z m5778 -1719 c-7 -22 -52 -98 -58 -98 -2 0 -1 15 1 34 3 23 10
36 23 39 11 3 19 14 19 26 0 12 5 21 11 21 6 0 8 -9 4 -22z m-175 -393 c18
-16 52 -56 76 -89 36 -48 44 -66 44 -102 0 -40 -6 -51 -69 -123 -106 -119
-165 -202 -191 -264 -22 -53 -24 -55 -37 -37 -29 41 -90 15 -81 -35 3 -16 1
-25 -7 -25 -22 0 -65 -41 -65 -63 -1 -18 -4 -16 -20 13 -10 19 -34 50 -54 69
-27 26 -33 38 -25 47 6 7 8 18 4 24 -9 15 -33 12 -42 -5 -7 -12 -16 -13 -48
-4 -122 34 -262 -47 -299 -172 -20 -66 -20 -82 0 -148 11 -37 29 -66 60 -97
41 -41 42 -44 16 -37 -35 9 -129 9 -166 0 l-28 -8 35 41 c113 133 49 329 -123
373 -30 8 -48 17 -42 21 7 4 12 21 12 38 0 21 -6 31 -20 35 -24 6 -24 12 -5
37 8 11 15 28 15 38 0 14 8 10 38 -19 36 -36 36 -38 17 -48 -25 -13 -27 -63
-2 -79 23 -15 51 3 55 37 l3 26 52 -20 c70 -28 174 -28 249 0 31 12 62 28 68
36 16 19 30 19 30 0 0 -18 26 -20 36 -3 4 6 1 16 -8 21 -13 9 -9 18 24 61 43
57 68 127 69 195 l0 46 21 -54 c26 -68 81 -123 148 -148 44 -17 49 -21 36 -32
-35 -30 -8 -91 39 -91 49 0 66 66 26 97 -14 11 -12 12 12 13 106 1 217 127
217 245 0 94 -69 195 -153 226 -29 10 -35 17 -34 38 3 44 29 42 58 -3 14 -23
41 -54 59 -71z m-465 -66 c11 -17 -1 -21 -15 -4 -8 9 -8 15 -2 15 6 0 14 -5
17 -11z m47 -90 c-5 -45 -16 -41 -27 9 -6 27 -4 32 12 32 16 0 18 -6 15 -41z
m-995 -476 c-3 -3 -11 -2 -17 2 -9 6 -9 10 1 16 14 8 27 -7 16 -18z m1267
-222 c20 -55 20 -62 0 -54 -24 9 -46 -24 -33 -48 12 -23 27 -24 49 -4 15 13
18 8 38 -52 20 -64 21 -65 1 -45 -30 33 -66 38 -97 15 -36 -27 -42 -83 -13
-112 27 -27 26 -31 -2 -31 -39 0 -94 -46 -112 -94 -16 -42 -18 -43 -45 -33
-24 9 -32 8 -49 -8 -12 -10 -21 -24 -21 -32 0 -7 -4 -13 -10 -13 -5 0 -10 -5
-10 -11 0 -6 6 -9 14 -6 8 3 20 -1 26 -9 16 -18 45 -18 64 1 8 8 17 15 20 15
3 0 6 -7 6 -15 0 -8 18 -33 40 -55 22 -22 40 -44 40 -49 0 -12 75 -3 127 15
74 27 114 106 93 183 -10 39 -77 111 -102 111 -7 0 -2 7 11 16 13 9 29 30 35
46 12 28 13 26 44 -74 40 -128 62 -229 62 -288 -1 -35 -3 -41 -11 -27 -21 36
-77 8 -64 -33 7 -22 44 -27 63 -8 19 19 15 -40 -8 -114 -49 -158 -238 -361
-427 -459 -136 -69 -250 -101 -389 -106 l-121 -5 1 23 c1 18 -4 24 -19 24 -14
0 -20 -6 -19 -22 0 -13 -3 -23 -8 -23 -4 0 -8 7 -8 16 0 9 -6 14 -12 11 -7 -2
-12 -10 -11 -16 2 -8 -61 -11 -226 -11 -125 0 -255 -3 -288 -6 l-59 -6 1 28
c0 22 -5 29 -20 29 -15 0 -20 -7 -20 -27 l1 -28 -130 0 -129 0 34 23 c81 54
63 184 -29 212 -22 6 -22 7 10 29 l33 22 17 -28 c10 -15 29 -30 43 -34 24 -6
25 -8 10 -23 -42 -47 7 -116 66 -94 19 8 29 8 29 1 0 -6 10 -8 22 -5 14 4 31
-2 52 -20 45 -38 88 -53 148 -53 62 0 147 35 172 71 16 23 16 23 30 4 14 -19
16 -19 32 -3 14 14 15 20 5 32 -8 9 -18 13 -24 9 -7 -4 -7 2 -2 18 5 13 9 58
10 100 0 66 -3 81 -28 117 -39 60 -95 94 -170 102 -34 4 -57 8 -51 9 6 0 28
12 48 26 33 22 36 23 36 6 0 -40 60 -52 74 -15 8 20 -11 54 -30 54 -11 0 -9 8
10 33 50 66 70 126 70 212 0 91 -21 150 -79 220 l-34 43 39 6 c49 8 80 45 80
95 0 20 -7 45 -15 55 -26 34 -5 36 25 2 43 -48 121 -79 186 -74 l51 4 -31 -25
c-41 -34 -63 -59 -82 -95 -16 -28 -16 -28 -30 -7 -27 38 -84 21 -84 -25 0 -29
24 -47 55 -42 22 5 24 3 18 -21 -4 -14 -7 -56 -7 -92 2 -128 84 -249 209 -305
48 -22 74 -28 135 -28 75 0 75 0 75 -26 0 -15 -6 -34 -13 -43 -28 -33 10 -83
46 -61 20 13 28 52 14 66 -7 7 -7 17 1 30 10 16 9 22 -5 32 -16 12 -14 15 25
32 23 10 57 32 76 49 33 29 34 29 26 5 -40 -121 -6 -230 90 -286 138 -80 305
-5 339 153 7 29 9 31 30 21 17 -7 30 -7 45 1 28 16 29 66 1 81 -22 12 -60 5
-60 -11 0 -22 -19 -6 -25 20 -10 45 -79 117 -130 136 -64 25 -151 17 -204 -18
l-40 -27 24 52 c39 84 42 177 9 263 -6 14 -4 17 8 12 22 -8 51 15 47 38 -2 10
-12 23 -22 29 -15 9 -22 7 -37 -12 -19 -23 -19 -23 -30 -2 -9 17 -8 20 8 20
40 0 56 48 26 81 -14 16 -13 18 14 24 43 9 107 68 132 121 14 27 23 66 24 99
1 48 3 52 17 39 27 -24 85 -18 108 12 24 31 26 49 8 84 -11 21 -11 27 2 37 14
10 17 2 23 -60 3 -40 13 -92 22 -116z m-2159 129 c3 -5 1 -10 -4 -10 -6 0 -11
5 -11 10 0 6 2 10 4 10 3 0 8 -4 11 -10z m1020 -249 c-3 -6 -11 -11 -16 -11
-5 0 -4 6 3 14 14 16 24 13 13 -3z m735 -117 c0 -10 -29 -53 -31 -47 -2 5 -17
19 -34 31 l-29 23 47 -3 c26 -2 47 -4 47 -4z m-3567 -934 c4 -17 2 -18 -14
-10 -10 6 -16 17 -13 25 8 19 20 12 27 -15z m1495 -607 c-15 -18 -2 -43 22
-43 19 0 25 10 20 39 -1 13 16 31 32 31 4 0 -8 -33 -27 -72 -72 -158 -155
-463 -155 -572 0 -20 -4 -36 -10 -36 -5 0 -10 16 -10 36 0 45 -44 264 -65 323
-19 53 -19 52 1 44 20 -7 45 22 37 43 -6 17 -50 19 -55 2 -3 -7 -17 21 -33 62
-15 41 -39 98 -53 125 l-24 50 32 -32 c76 -77 198 -63 246 28 l15 30 19 -23
c13 -16 15 -27 8 -35z"/>
<path d="M8782 3160 c-27 -11 -45 -55 -37 -87 3 -13 18 -31 33 -41 19 -12 26
-24 24 -40 -4 -28 24 -40 45 -19 13 13 14 19 4 31 -10 11 -7 19 14 40 32 32
32 70 0 101 -25 26 -45 30 -83 15z"/>
<path d="M8805 2660 c-4 -6 -4 -14 -1 -17 3 -4 -4 -11 -17 -17 -25 -13 -34
-50 -17 -72 13 -15 48 -19 66 -6 20 13 26 49 10 64 -8 8 -14 23 -13 33 2 21
-18 31 -28 15z"/>
<path d="M8812 2488 c-7 -7 -12 -20 -12 -31 0 -14 -5 -17 -20 -12 -29 9 -70
-20 -70 -49 0 -28 29 -56 58 -56 25 0 57 43 49 64 -4 11 1 14 20 13 15 -1 30
6 39 18 26 39 -31 86 -64 53z"/>
<path d="M7913 2096 c3 -8 -1 -20 -9 -26 -20 -17 -18 -64 4 -83 40 -36 102 -9
102 45 0 28 -28 58 -53 58 -9 0 -17 5 -17 10 0 6 -7 10 -16 10 -10 0 -14 -6
-11 -14z"/>
<path d="M7926 1915 c3 -8 -1 -24 -10 -37 -23 -33 -20 -72 10 -107 67 -80 198
5 150 98 -20 39 -49 54 -92 49 -19 -2 -34 0 -34 4 0 4 -7 8 -15 8 -8 0 -12 -6
-9 -15z"/>
<path d="M8162 1868 c-17 -17 -15 -47 3 -54 13 -5 12 -10 -5 -31 -11 -14 -20
-37 -20 -50 0 -27 41 -73 64 -73 33 0 66 25 78 57 7 18 17 33 24 33 6 0 17 7
24 15 10 12 10 18 -1 32 -8 9 -13 24 -11 35 2 13 -3 18 -18 18 -18 0 -21 -4
-17 -23 9 -35 -4 -44 -38 -27 -20 10 -29 21 -27 33 7 36 -31 60 -56 35z"/>
<path d="M8100 1800 c0 -5 11 -10 25 -10 14 0 25 5 25 10 0 6 -11 10 -25 10
-14 0 -25 -4 -25 -10z"/>
<path d="M8070 1744 c-21 -21 -23 -26 -10 -39 20 -20 40 -5 46 33 6 38 -2 39
-36 6z"/>
<path d="M8515 1740 c-3 -5 -22 -10 -42 -10 -47 0 -103 -54 -103 -99 0 -68 48
-116 115 -114 19 1 33 -3 30 -7 -3 -4 2 -13 11 -20 22 -19 43 3 27 29 -10 15
-8 22 7 36 40 36 33 115 -14 154 -9 7 -14 17 -11 21 3 5 1 11 -4 14 -5 4 -12
2 -16 -4z"/>
<path d="M8005 1666 c-19 -28 -11 -54 20 -62 22 -5 23 -7 7 -34 -13 -22 -19
-26 -33 -17 -38 23 -68 -25 -34 -53 12 -10 19 -10 27 -2 17 17 28 15 28 -6 0
-23 34 -60 67 -73 56 -21 133 32 133 91 0 27 1 28 29 17 57 -21 103 24 87 86
-14 57 -111 54 -123 -3 l-5 -28 -34 20 c-22 13 -46 19 -64 16 -27 -4 -30 -2
-30 22 0 51 -48 68 -75 26z"/>
<path d="M8360 1495 c-26 -31 16 -69 52 -46 10 6 23 9 28 6 20 -12 9 17 -12
36 -28 22 -51 24 -68 4z"/>
<path d="M6346 896 c-14 -13 -33 -26 -43 -28 -27 -5 -22 -33 5 -32 12 0 22 -3
22 -8 0 -5 11 -14 25 -20 14 -6 25 -17 25 -25 0 -7 5 -13 10 -13 6 0 10 6 10
13 0 8 9 22 20 32 11 10 20 25 20 33 0 11 3 12 14 3 18 -15 46 -4 46 19 0 10
-7 23 -16 30 -12 11 -18 10 -31 -3 -14 -13 -18 -14 -27 -3 -22 28 -54 29 -80
2z"/>
<path d="M6310 10526 c0 -29 28 -42 48 -22 20 20 8 46 -23 46 -20 0 -25 -5
-25 -24z"/>
<path d="M6759 10352 c-28 -23 -30 -73 -4 -102 26 -29 78 -27 103 5 16 21 21
22 26 9 8 -20 45 -15 60 8 8 14 7 22 -7 35 -14 15 -21 16 -37 5 -18 -11 -21
-9 -30 12 -17 46 -71 59 -111 28z"/>
<path d="M5885 10292 c-17 -10 -36 -17 -44 -14 -10 3 -12 -1 -8 -19 4 -13 7
-39 7 -57 0 -48 46 -92 95 -92 47 0 71 14 91 52 45 88 -57 183 -141 130z"/>
<path d="M6955 10176 c-31 -13 -85 -69 -85 -87 0 -4 -13 -6 -29 -3 -19 4 -30
1 -34 -8 -8 -23 9 -41 32 -35 16 4 21 1 21 -14 0 -11 7 -36 15 -56 11 -27 12
-38 4 -44 -6 -4 -8 -12 -4 -18 5 -9 10 -9 20 -1 9 8 22 5 49 -11 34 -20 36
-23 21 -39 -8 -9 -15 -29 -15 -43 0 -20 -5 -27 -19 -27 -14 0 -17 6 -14 23 5
25 -19 57 -42 57 -19 0 -45 -28 -45 -49 0 -22 19 -41 42 -41 14 0 17 -5 12
-24 -6 -27 17 -56 46 -56 23 0 51 37 43 57 -5 12 -1 14 16 8 52 -16 93 54 56
96 -15 15 -14 17 11 23 96 24 146 147 92 226 -13 18 -35 42 -49 53 -34 25
-105 31 -144 13z"/>
<path d="M5560 10055 c0 -8 -9 -19 -21 -25 -25 -14 -23 -58 4 -74 31 -20 52 4
53 63 1 44 -1 51 -17 51 -11 0 -19 -7 -19 -15z"/>
<path d="M7225 10018 c-36 -19 -55 -52 -55 -93 0 -23 5 -46 11 -52 8 -8 5 -13
-11 -18 -29 -9 -24 -49 8 -53 17 -3 25 2 29 16 4 17 9 18 32 9 83 -31 159 61
120 146 -21 47 -89 70 -134 45z"/>
<path d="M5322 9898 c2 -15 10 -23 23 -23 30 0 27 39 -3 43 -20 3 -23 0 -20
-20z"/>
<path d="M5262 9848 c2 -15 10 -23 23 -23 30 0 27 39 -3 43 -20 3 -23 0 -20
-20z"/>
<path d="M5221 9803 c2 -10 -3 -28 -10 -41 -10 -20 -10 -27 4 -48 19 -29 46
-31 70 -4 15 17 16 24 7 45 -6 14 -18 25 -27 25 -8 0 -15 9 -15 20 0 11 -7 20
-16 20 -9 0 -14 -7 -13 -17z"/>
<path d="M5129 9663 c-1 -4 -1 -11 0 -15 0 -5 -8 -8 -20 -8 -32 0 -79 -53 -79
-90 0 -42 15 -67 51 -86 62 -32 134 14 134 87 0 43 2 47 20 22 7 -9 17 -13 23
-9 14 8 16 36 3 36 -5 0 -11 9 -14 20 -5 21 -43 28 -49 9 -2 -7 -12 -7 -30 2
-15 6 -25 15 -23 20 3 4 1 10 -5 14 -5 3 -11 3 -11 -2z"/>
<path d="M7812 9438 c-7 -7 -12 -22 -12 -35 0 -21 -5 -23 -47 -23 -90 0 -173
-80 -173 -166 0 -37 31 -103 58 -128 19 -16 19 -20 7 -33 -19 -18 -19 -27 -1
-42 19 -16 46 -3 46 21 0 16 6 19 33 17 60 -4 84 1 119 25 34 23 35 23 47 4 7
-12 21 -18 34 -16 31 4 30 49 -1 63 -14 6 -20 15 -16 25 3 8 8 27 11 41 5 24
7 26 33 16 34 -13 57 -4 72 27 25 57 -59 107 -95 56 -14 -20 -15 -19 -41 20
-14 22 -32 40 -38 40 -7 0 -2 7 10 16 36 25 24 84 -18 84 -9 0 -21 -5 -28 -12z"/>
<path d="M4775 9311 c-8 -15 3 -31 21 -31 9 0 14 7 12 17 -4 20 -24 28 -33 14z"/>
<path d="M6542 9063 c-13 -25 -4 -43 21 -43 20 1 66 27 56 32 -53 33 -65 34
-77 11z"/>
<path d="M8132 9015 c1 -41 7 -43 31 -10 20 28 15 45 -13 45 -16 0 -19 -7 -18
-35z"/>
<path d="M4562 8858 c-17 -17 -15 -45 6 -57 23 -14 6 -14 -19 0 -43 23 -92
-44 -57 -79 22 -22 67 -14 80 13 6 14 18 25 25 25 9 0 13 8 12 23 -2 12 0 28
4 34 10 16 -9 53 -26 53 -7 0 -18 -5 -25 -12z"/>
<path d="M8225 8800 c-3 -6 -3 -19 0 -30 4 -12 2 -20 -5 -20 -7 0 -10 -6 -7
-14 4 -10 -7 -15 -39 -20 -129 -17 -214 -125 -202 -254 5 -48 5 -48 -23 -44
-23 3 -31 -1 -41 -23 -11 -24 -10 -29 10 -45 26 -21 59 -16 67 11 5 15 11 12
43 -23 47 -52 102 -78 170 -78 132 0 226 95 227 230 0 54 -5 73 -28 113 -29
49 -104 107 -139 107 -20 0 -15 23 10 52 8 10 12 24 9 33 -7 17 -42 20 -52 5z"/>
<path d="M4748 8693 c-24 -6 -22 -15 7 -35 29 -22 55 -14 55 18 0 24 -17 29
-62 17z"/>
<path d="M4510 8671 c-5 -11 -8 -26 -5 -33 3 -7 -5 -18 -17 -23 -32 -14 -32
-65 -1 -81 l23 -11 -26 -24 c-13 -13 -39 -53 -57 -88 -28 -58 -32 -75 -31
-146 0 -52 6 -94 17 -119 12 -27 14 -43 7 -50 -20 -20 -11 -39 14 -32 18 4 28
0 40 -19 24 -37 113 -92 176 -109 30 -8 48 -15 41 -15 -19 -1 -71 -51 -71 -68
0 -7 -7 -13 -15 -13 -8 0 -15 -4 -15 -10 0 -5 6 -10 14 -10 7 0 16 -11 18 -24
4 -17 1 -23 -9 -19 -47 18 -96 -40 -69 -82 9 -13 25 -26 36 -30 30 -10 70 20
70 51 0 22 3 24 23 18 28 -10 67 -10 91 1 16 7 17 6 7 -13 -38 -71 23 -162
109 -162 107 0 157 129 78 202 -19 17 -41 28 -59 28 -24 0 -29 4 -29 26 0 22
-4 25 -27 22 -20 -2 -29 2 -31 15 -2 10 3 17 12 17 18 0 22 35 4 46 -6 4 -16
0 -22 -9 -11 -14 -14 -13 -36 4 l-25 19 27 0 c101 1 236 105 277 214 28 75 28
167 -1 243 -25 68 -100 153 -162 183 -96 46 -215 46 -306 0 l-35 -18 -1 28
c-1 20 5 30 17 33 24 6 26 62 3 71 -27 10 -43 7 -54 -13z m320 -880 c0 -5 -7
-11 -14 -14 -10 -4 -13 -1 -9 9 6 15 23 19 23 5z"/>
<path d="M6183 8602 c-7 -27 -47 -34 -62 -10 -14 22 -44 23 -65 2 -20 -20 -20
-27 3 -55 16 -20 22 -22 44 -12 20 10 28 9 37 -3 7 -8 18 -14 26 -14 19 0 52
51 50 79 -1 30 -26 40 -33 13z"/>
<path d="M5395 8573 c-55 -14 -107 -88 -91 -129 4 -10 -6 -6 -25 10 -40 34
-72 41 -120 27 -49 -15 -79 -59 -79 -117 0 -73 61 -122 140 -111 21 3 41 2 44
-1 3 -3 -11 -19 -31 -37 -32 -28 -39 -30 -51 -18 -17 16 -32 13 -45 -9 -16
-25 0 -51 28 -46 21 4 25 1 25 -19 0 -15 14 -39 34 -59 28 -28 42 -34 75 -34
30 0 41 -4 41 -15 0 -8 7 -15 16 -15 10 0 14 7 12 23 -1 12 5 33 15 47 22 32
22 99 -1 126 -21 26 -54 44 -80 44 -27 0 -33 32 -11 59 10 12 21 38 25 57 l6
34 28 -23 c21 -16 25 -25 17 -35 -8 -10 -7 -16 3 -22 17 -11 30 -4 30 16 0 8
10 14 24 14 42 0 75 18 96 52 41 67 16 144 -56 174 -35 15 -37 15 -69 7z"/>
<path d="M7937 8313 c-13 -12 -7 -60 8 -73 13 -11 9 -17 -34 -46 -27 -18 -61
-48 -75 -66 l-26 -33 0 28 c0 70 -58 127 -130 127 -71 0 -130 -57 -130 -125 0
-57 59 -125 108 -125 20 0 22 -3 12 -14 -28 -35 11 -93 48 -70 22 14 28 55 10
68 -12 9 -8 15 19 34 l35 22 -9 -32 c-4 -18 -8 -67 -8 -108 0 -62 5 -85 28
-132 26 -53 125 -158 148 -158 6 0 3 -10 -5 -22 -9 -12 -26 -23 -37 -23 -26 0
-45 -26 -36 -49 9 -22 56 -21 65 2 4 10 18 17 32 17 19 0 26 6 30 25 5 25 6
26 58 15 53 -10 53 -10 25 -22 -16 -7 -36 -25 -45 -41 -9 -15 -29 -34 -45 -41
-54 -26 -58 -29 -57 -50 0 -12 -6 -21 -13 -21 -8 0 -13 -8 -11 -18 2 -10 -9
-33 -25 -51 -32 -39 -36 -91 -9 -136 17 -28 17 -30 0 -47 -15 -15 -16 -23 -8
-38 6 -11 19 -20 30 -20 20 0 40 27 33 46 -2 6 10 8 31 6 l34 -4 -35 -31 c-91
-80 -98 -233 -15 -320 93 -98 252 -95 337 5 16 18 34 47 42 65 18 45 16 131
-6 178 -19 43 -78 100 -117 115 l-24 9 25 25 c31 31 32 69 3 96 -30 27 -64 25
-93 -6 l-25 -27 0 25 c0 52 -84 118 -131 103 -10 -4 -19 -2 -19 4 0 5 15 11
33 13 28 3 33 7 38 38 6 32 6 33 8 7 1 -18 14 -42 35 -63 29 -29 41 -34 79
-34 75 0 127 61 113 134 -7 36 -55 86 -82 86 -8 0 -14 5 -14 10 0 6 12 10 26
10 44 0 130 48 178 100 72 77 91 127 91 237 0 85 1 91 17 76 22 -20 56 -9 70
23 9 20 8 28 -5 41 -16 16 -15 19 4 39 28 30 19 71 -18 80 -14 4 -33 2 -42 -3
-23 -14 -27 -64 -6 -79 15 -11 15 -13 -4 -24 -12 -6 -21 -21 -21 -33 -1 -18
-4 -16 -19 13 -11 20 -15 37 -10 41 17 10 16 64 -1 64 -10 0 -14 -9 -13 -29
l2 -30 -32 39 c-18 22 -31 46 -29 54 2 9 -2 12 -12 8 -9 -4 -39 6 -68 21 -46
24 -65 27 -145 27 -91 0 -92 0 -86 23 3 12 0 29 -7 37 -13 15 -61 21 -73 8z
m171 -1125 c14 -17 13 -18 -11 -18 -14 0 -32 -3 -41 -6 -12 -5 -11 3 7 35 16
29 23 36 26 23 1 -9 10 -25 19 -34z"/>
<path d="M8477 8243 c-15 -14 -7 -43 12 -43 26 0 36 17 21 35 -14 16 -23 19
-33 8z"/>
<path d="M6449 8213 c-78 -40 -112 -93 -117 -183 -5 -84 20 -144 79 -192 27
-22 36 -35 29 -43 -11 -13 -3 -25 17 -25 7 0 13 7 13 16 0 11 5 14 16 10 9 -3
26 -6 38 -6 17 0 22 -6 22 -22 -1 -14 5 -23 14 -23 9 0 15 9 14 23 -1 27 22
29 29 2 5 -21 31 -27 42 -10 4 6 2 17 -5 25 -9 11 -5 17 19 29 33 17 49 3 24
-22 -16 -17 -17 -54 -1 -70 15 -15 64 -16 73 -2 4 6 15 0 27 -15 13 -17 29
-25 49 -25 18 0 28 -4 24 -10 -9 -15 25 -25 38 -11 9 10 8 15 -6 26 -12 8 -14
15 -8 20 15 9 14 48 -3 70 -17 24 -74 25 -92 1 -11 -16 -13 -16 -19 3 -3 12
-10 21 -14 21 -4 0 -18 9 -30 19 l-22 20 21 21 c57 57 76 169 41 245 -56 122
-191 168 -312 108z"/>
<path d="M4308 8085 c-7 -16 -19 -25 -34 -25 -30 0 -49 -33 -34 -60 15 -29 58
-26 72 4 6 16 21 26 37 28 18 2 27 10 29 26 7 50 -49 72 -70 27z"/>
<path d="M5048 8089 c-28 -16 -24 -75 7 -95 20 -13 23 -19 14 -30 -10 -12 -14
-11 -26 6 -19 27 -60 26 -68 0 -8 -25 10 -50 36 -50 16 0 17 -4 7 -31 -22 -62
13 -143 74 -175 22 -11 48 -15 85 -12 46 4 60 10 91 41 31 32 36 43 40 96 3
41 8 58 17 55 17 -7 37 20 29 40 -7 19 -43 21 -50 3 -3 -10 -15 -4 -40 19 -25
25 -48 35 -82 40 -47 6 -48 7 -44 38 6 54 -42 83 -90 55z"/>
<path d="M4500 7930 c-11 -11 -20 -30 -20 -42 0 -21 0 -21 -26 3 -22 21 -35
24 -94 24 -59 0 -72 -3 -95 -25 -97 -90 -61 -233 68 -265 15 -4 27 -11 27 -16
0 -5 7 -9 15 -9 8 0 14 5 13 10 -2 6 11 17 29 25 28 12 32 12 36 -6 6 -21 42
-26 49 -6 7 18 -2 37 -18 37 -11 0 -9 9 7 40 16 31 20 53 17 90 -5 45 -4 48
14 39 13 -7 27 -6 46 3 38 18 44 79 10 102 -30 21 -54 20 -78 -4z"/>
<path d="M7600 7942 c0 -5 -18 -14 -39 -21 -53 -15 -81 -52 -81 -105 0 -50 21
-83 66 -102 92 -38 186 64 139 151 -9 18 -27 38 -40 45 -13 7 -23 17 -22 23 1
5 -4 12 -10 14 -7 3 -13 1 -13 -5z"/>
<path d="M8473 7720 c-25 -10 -30 -25 -12 -35 11 -7 49 22 49 37 0 10 -8 9
-37 -2z"/>
<path d="M8500 7681 c-11 -22 1 -61 20 -61 5 0 7 -13 4 -30 -5 -22 -2 -31 10
-36 9 -3 16 -12 16 -20 0 -23 14 -16 28 13 16 36 15 52 -3 59 -12 5 -13 10 -5
20 7 7 10 25 8 41 -2 23 -8 29 -35 31 -24 2 -34 -2 -43 -17z"/>
<path d="M5115 7661 c-46 -20 -102 -79 -111 -117 l-6 -25 -20 20 c-10 12 -23
21 -29 21 -23 0 -49 -22 -49 -40 0 -24 -13 -26 -31 -3 -22 26 -127 71 -184 78
-70 9 -165 -16 -232 -60 -105 -70 -168 -215 -145 -337 6 -33 21 -80 32 -104
25 -52 98 -126 146 -149 22 -10 31 -20 28 -30 -4 -8 -2 -15 4 -15 6 0 12 5 14
10 2 7 22 7 61 0 100 -19 214 16 288 87 35 34 37 34 44 14 3 -12 17 -28 30
-37 26 -17 55 -8 75 24 10 14 11 13 6 -8 -3 -14 -6 -43 -6 -65 0 -39 -1 -40
-18 -19 -48 60 -135 56 -168 -8 -14 -28 -14 -28 -34 -8 -56 56 -148 -21 -99
-83 26 -33 70 -36 100 -6 17 17 23 19 30 8 5 -8 9 -17 9 -21 0 -12 57 -38 82
-38 32 1 66 21 86 52 l17 26 17 -39 c16 -39 16 -39 -7 -39 -29 0 -48 -23 -40
-49 12 -40 75 -34 75 7 0 9 14 -1 35 -26 45 -52 143 -101 217 -109 52 -5 55
-7 50 -30 -8 -42 39 -59 59 -22 8 15 8 24 0 32 -16 16 -13 27 7 27 37 0 123
53 171 106 54 59 91 150 91 224 0 74 -37 165 -91 224 -67 74 -137 108 -235
114 l-75 5 29 17 c69 42 108 130 98 219 -5 44 -4 53 6 43 6 -6 22 -12 34 -12
12 0 24 -7 28 -15 8 -22 36 -18 36 5 0 11 -5 20 -12 20 -6 0 -4 7 5 18 39 43
5 112 -53 112 -35 0 -70 -31 -70 -62 -1 -23 -1 -23 -15 -3 -13 17 -13 20 0 28
8 4 15 15 15 22 0 8 5 15 10 15 6 0 10 4 10 8 0 5 -14 9 -31 10 -23 0 -33 -4
-36 -19 -6 -23 -1 -23 -48 1 -51 26 -145 27 -200 1z m-125 -223 c0 -53 41
-127 88 -162 20 -14 29 -27 23 -31 -16 -9 -13 -45 4 -51 20 -8 47 15 40 34 -4
11 0 13 17 8 13 -3 37 -6 53 -6 29 0 28 -2 -21 -30 -56 -31 -104 -84 -132
-141 l-17 -36 -27 29 c-21 22 -33 28 -49 23 -19 -6 -21 -4 -14 11 28 68 37
108 37 173 -1 64 -5 84 -34 142 l-34 68 26 4 c14 2 28 5 33 6 4 0 7 -18 7 -41z"/>
<path d="M8402 7638 c-15 -15 -16 -65 -1 -74 8 -5 7 -9 -1 -14 -17 -11 -4 -44
14 -37 8 3 17 -1 20 -9 3 -8 12 -14 21 -14 20 0 31 28 17 42 -8 8 -5 19 10 39
20 27 20 29 4 53 -18 28 -63 35 -84 14z"/>
<path d="M8379 7417 c-32 -16 -37 -60 -10 -83 16 -14 17 -20 8 -35 -8 -14 -9
-21 0 -30 8 -8 4 -17 -13 -34 -13 -13 -24 -29 -24 -35 0 -17 49 -62 60 -55 16
10 12 -4 -11 -34 -48 -65 -29 -162 41 -209 30 -20 45 -23 98 -20 34 2 62 0 62
-4 0 -4 9 -8 20 -8 11 0 20 -5 20 -12 0 -6 7 -20 16 -30 14 -14 14 -18 3 -22
-102 -30 -176 -81 -220 -152 l-22 -36 -13 31 c-19 45 -79 57 -116 24 -15 -13
-18 -12 -28 6 -23 44 -88 16 -76 -33 7 -28 31 -40 54 -27 12 7 19 2 31 -23 23
-45 63 -62 102 -42 29 14 30 14 24 -5 -4 -11 -7 -49 -6 -83 1 -155 103 -284
257 -325 30 -8 41 -16 40 -29 0 -9 6 -17 14 -17 8 0 14 8 14 18 -1 12 6 17 26
17 23 0 27 -4 23 -20 -6 -24 21 -37 42 -20 10 8 12 17 5 29 -7 15 -1 20 41 35
70 26 142 94 181 173 61 124 40 265 -53 368 -58 63 -132 103 -207 112 -49 5
-51 7 -37 23 19 21 19 64 0 80 -21 18 -62 15 -84 -4 -14 -13 -21 -14 -26 -6
-4 7 -3 15 2 19 47 32 59 135 21 191 -40 58 -112 83 -170 61 -22 -8 -24 -7
-20 18 2 16 -3 34 -11 43 -21 20 -11 68 14 68 11 0 19 7 19 15 0 8 -5 15 -11
15 -7 0 -9 9 -6 22 12 46 -32 85 -74 65z"/>
<path d="M5596 7251 c-4 -6 -13 -8 -20 -5 -17 7 -32 -14 -19 -27 15 -15 74 1
71 19 -4 19 -24 27 -32 13z"/>
<path d="M6924 7155 c-3 -8 -3 -19 1 -25 3 -5 -1 -10 -9 -10 -8 0 -23 -11 -34
-25 -11 -14 -25 -25 -32 -25 -6 0 -10 -5 -8 -11 2 -6 7 -10 11 -10 3 0 18 -11
31 -24 32 -32 59 -32 85 2 22 28 20 59 -5 79 -10 8 -10 14 -2 22 14 14 3 42
-17 42 -9 0 -18 -7 -21 -15z"/>
<path d="M6065 7146 c-12 -9 -16 -20 -12 -35 5 -20 3 -22 -18 -17 -38 10 -121
-13 -164 -45 -38 -27 -41 -28 -41 -9 0 11 -11 27 -25 36 -23 15 -27 15 -50 0
-32 -21 -33 -60 -1 -81 13 -8 30 -13 38 -10 13 5 12 -3 -4 -51 -19 -55 -19
-78 -2 -150 5 -18 2 -20 -26 -16 -52 7 -88 -44 -61 -87 12 -18 -50 -51 -80
-44 -17 5 -20 2 -17 -13 2 -10 10 -18 16 -16 7 1 12 -7 12 -19 0 -81 112 -104
139 -27 8 23 7 36 -4 59 -13 24 -13 29 -2 29 20 0 47 33 47 59 0 20 3 19 35
-13 18 -19 43 -37 55 -41 24 -8 27 -25 4 -25 -8 0 -29 -14 -46 -30 -24 -25
-29 -37 -26 -65 3 -30 1 -34 -22 -37 -19 -2 -25 -9 -25 -27 0 -13 8 -29 18
-35 15 -9 22 -7 35 9 16 19 18 19 51 3 44 -22 78 -15 114 23 36 39 36 86 1
128 l-26 31 39 0 c36 0 39 -2 38 -27 0 -33 34 -44 55 -18 12 14 12 20 1 38
-11 17 -11 22 -1 25 28 10 94 79 111 117 11 22 19 64 19 95 1 48 2 53 14 38 7
-10 18 -18 24 -18 7 0 5 -14 -5 -37 -10 -22 -17 -68 -17 -110 -1 -62 -3 -72
-17 -68 -38 12 -67 -21 -49 -56 13 -23 55 -25 68 -4 6 12 12 8 25 -20 10 -20
13 -34 8 -31 -5 3 -16 3 -25 0 -18 -7 -22 -49 -6 -59 16 -10 50 5 50 21 0 10
18 -2 44 -29 54 -54 122 -87 192 -94 49 -5 52 -7 51 -32 -2 -22 2 -26 23 -26
21 0 25 4 23 27 -1 23 3 28 30 34 53 11 120 50 164 96 96 99 125 251 71 370
-35 75 -98 141 -167 175 -49 24 -68 27 -146 27 -70 0 -101 -5 -137 -22 l-48
-21 0 24 c0 15 -10 31 -25 41 -23 15 -27 15 -50 0 -31 -21 -33 -59 -3 -80 12
-8 25 -13 30 -10 19 12 6 -11 -27 -47 -19 -22 -35 -44 -35 -51 0 -9 -3 -9 -11
-1 -6 6 -11 30 -12 54 -2 37 -5 44 -25 47 -13 2 -25 -3 -28 -13 -5 -13 -11 -9
-29 17 l-23 33 22 5 c30 8 34 55 7 70 -27 14 -61 -3 -61 -30 0 -23 -9 -25 -34
-7 -17 12 -17 14 -2 20 22 9 20 44 -3 56 -13 7 -23 6 -36 -3z m178 -212 c-7
-19 -10 -18 -16 5 -3 13 -1 18 9 14 7 -2 10 -11 7 -19z"/>
<path d="M4245 7060 c-3 -6 -4 -18 -1 -28 4 -13 -3 -25 -24 -40 -64 -48 -78
-144 -31 -210 30 -43 101 -69 152 -55 21 6 39 8 39 6 0 -2 -10 -17 -22 -34
-33 -44 -38 -160 -10 -216 26 -50 79 -97 127 -113 56 -18 158 -9 195 18 l30
23 0 -24 c0 -47 56 -65 83 -27 13 19 15 18 39 -19 l25 -38 -46 14 c-29 9 -72
13 -117 10 -179 -10 -313 -145 -322 -324 l-4 -71 -32 19 c-53 32 -109 20 -139
-31 -42 -71 7 -150 93 -150 38 0 90 47 90 82 1 18 6 12 26 -25 79 -152 268
-227 426 -167 127 47 217 169 226 304 4 69 5 72 29 71 33 0 52 27 34 49 -17
20 -47 21 -59 0 -7 -12 -13 -6 -26 30 -10 26 -40 71 -68 101 l-50 55 41 0 c51
0 90 19 124 60 42 49 45 92 12 172 -5 12 -1 17 17 20 18 2 23 9 23 33 0 27 -3
30 -30 30 -23 0 -31 -5 -33 -22 l-3 -21 -42 19 c-54 24 -81 24 -133 -2 -49
-23 -84 -72 -84 -117 0 -30 -1 -31 -27 -17 -15 8 -30 12 -35 9 -12 -7 -11 -4
17 50 46 91 29 185 -45 258 -69 66 -157 86 -237 53 -19 -8 -37 -15 -38 -15 -2
0 2 13 8 29 8 23 17 29 36 28 20 -2 27 3 29 22 3 20 0 23 -21 19 -22 -4 -26
-1 -31 28 -13 64 -74 114 -141 114 -23 0 -34 4 -30 10 7 11 -12 40 -26 40 -4
0 -11 -5 -14 -10z"/>
<path d="M7665 6993 c-27 -7 -75 -53 -75 -72 -1 -11 -7 -7 -21 12 -41 54 -119
27 -119 -41 0 -25 7 -36 29 -50 24 -14 26 -19 15 -30 -29 -27 -5 -82 36 -82
17 0 50 34 50 52 0 5 -9 17 -20 28 l-20 20 20 20 20 20 9 -22 c11 -29 50 -64
79 -71 35 -8 89 11 112 41 17 21 21 38 18 74 -2 34 1 48 10 48 6 0 12 -7 12
-15 0 -8 7 -15 15 -15 8 0 15 9 15 20 0 11 -4 20 -9 20 -5 0 -11 9 -14 20 -6
23 -35 27 -43 6 -4 -11 -12 -10 -42 5 -37 19 -42 20 -77 12z"/>
<path d="M7156 6925 c-83 -29 -145 -120 -146 -211 0 -78 57 -178 113 -197 9
-3 9 -8 -2 -20 -17 -21 -7 -47 18 -47 18 0 35 25 27 39 -3 4 8 6 23 3 20 -3
27 -9 27 -25 -1 -13 5 -22 14 -22 9 0 15 9 14 23 0 17 5 22 25 22 45 0 127 55
157 105 16 28 32 44 42 43 9 -2 18 5 20 15 2 10 -3 17 -12 17 -12 0 -16 11
-16 48 -1 152 -158 259 -304 207z"/>
<path d="M4067 6883 c-4 -3 -7 -15 -7 -25 0 -14 -8 -18 -39 -18 -106 0 -148
-146 -57 -201 111 -67 225 63 145 166 -11 14 -16 25 -11 25 16 0 23 31 11 46
-12 15 -31 18 -42 7z"/>
<path d="M7848 6769 c-22 -12 -24 -62 -3 -79 8 -7 26 -10 39 -8 16 3 26 0 30
-11 3 -9 8 -21 11 -27 4 -7 -15 -13 -52 -16 -72 -7 -141 -38 -192 -88 l-39
-38 -6 29 c-19 96 -156 88 -156 -10 0 -54 35 -86 89 -78 l39 5 -13 -37 c-7
-20 -16 -55 -20 -79 -6 -38 -8 -41 -27 -31 -32 17 -68 -4 -68 -39 0 -15 5 -33
12 -40 9 -9 5 -16 -15 -32 -49 -39 -24 -112 37 -112 21 0 24 -3 16 -19 -25
-46 6 -99 58 -99 47 0 81 54 60 93 -14 28 -27 37 -55 37 -19 0 -21 4 -16 39 4
30 1 43 -15 59 -19 19 -20 21 -3 36 17 16 19 14 31 -29 51 -182 271 -292 442
-220 15 6 17 3 12 -23 -11 -57 61 -96 99 -54 32 35 15 89 -32 104 -9 2 -1 13
22 31 19 14 45 42 57 62 18 29 26 34 46 29 20 -5 24 -2 24 15 0 13 -6 21 -16
21 -11 0 -14 5 -10 16 3 9 9 26 12 38 4 18 11 22 33 18 33 -5 45 9 36 39 -6
17 -12 20 -37 15 -16 -3 -27 -2 -25 2 9 14 -12 114 -33 157 -12 24 -39 62 -61
85 l-40 41 23 19 c19 15 21 22 12 37 -23 37 -81 21 -70 -20 3 -14 1 -17 -12
-11 -9 4 -37 14 -61 22 -34 12 -40 17 -27 24 37 21 7 86 -34 75 -14 -4 -20 0
-20 12 0 21 -30 51 -51 51 -8 0 -22 -5 -31 -11z"/>
<path d="M4192 6718 c-16 -16 -15 -53 2 -67 19 -16 8 -51 -14 -51 -22 0 -60
-45 -60 -70 0 -34 35 -64 74 -63 25 1 36 -3 36 -13 0 -17 26 -19 36 -2 4 6 1
16 -8 21 -12 8 -13 16 -4 38 8 24 7 33 -12 59 -13 16 -17 30 -11 30 6 0 9 8 7
18 -3 12 2 24 13 31 37 22 18 81 -26 81 -12 0 -26 -5 -33 -12z"/>
<path d="M7688 6712 c-13 -9 -30 -17 -38 -17 -8 0 -15 -7 -15 -15 0 -8 7 -15
15 -15 8 0 21 -8 28 -17 19 -26 59 -22 77 6 31 47 -20 90 -67 58z"/>
<path d="M5202 6578 c-14 -14 -16 -45 -2 -53 6 -4 5 -13 -2 -24 -9 -15 -15
-17 -29 -8 -23 14 -51 -8 -47 -37 4 -27 47 -35 60 -11 8 13 13 14 24 4 12 -10
9 -17 -16 -45 -34 -39 -47 -93 -33 -139 l11 -33 -34 5 c-44 7 -74 -18 -74 -62
0 -38 26 -65 63 -65 31 0 67 31 67 59 0 17 3 17 48 -6 46 -24 98 -27 143 -9
13 6 16 2 12 -17 -7 -33 12 -65 42 -73 23 -6 22 -8 -34 -60 -80 -74 -115 -151
-115 -255 l-1 -76 -27 28 c-35 35 -89 53 -138 46 -33 -4 -37 -3 -33 14 7 25
-14 49 -42 49 -47 0 -60 -55 -18 -76 l23 -11 -24 -22 c-23 -22 -23 -22 -29 -2
-7 27 -43 27 -57 0 -14 -24 2 -49 31 -49 15 0 17 -5 13 -30 -16 -79 40 -169
119 -188 24 -6 53 -9 65 -5 23 6 23 5 -3 -33 -23 -34 -26 -47 -23 -98 4 -54 8
-62 46 -97 37 -35 47 -39 92 -39 57 0 99 18 128 55 25 31 32 32 32 0 0 -36 64
-103 106 -111 21 -4 34 -12 34 -21 0 -11 -5 -13 -17 -8 -97 42 -200 42 -291 0
-30 -14 -56 -25 -58 -25 -2 0 -4 11 -4 24 0 31 -24 50 -55 44 -19 -4 -25 -1
-25 12 0 27 -28 46 -48 33 -25 -15 -21 -56 6 -68 12 -5 22 -17 22 -26 0 -21
31 -49 54 -49 15 0 12 -7 -14 -37 -18 -20 -40 -54 -50 -75 l-17 -38 -11 25
c-22 48 -95 41 -108 -10 -13 -52 57 -100 93 -64 7 7 12 -14 15 -73 7 -126 62
-221 160 -277 l49 -28 -46 -6 c-56 -8 -100 -30 -142 -70 l-32 -30 -6 26 c-15
60 -94 82 -137 39 -65 -65 23 -180 98 -128 20 14 20 13 16 -44 -5 -74 11 -123
59 -175 36 -39 38 -43 19 -48 -25 -6 -34 -29 -26 -62 15 -58 104 -32 92 26 -5
26 -5 27 36 17 23 -5 55 -6 72 -3 l31 6 -30 -19 c-71 -44 -155 -175 -155 -239
0 -14 -2 -14 -20 2 -18 16 -24 17 -48 5 -15 -7 -39 -12 -53 -11 -33 3 -47 -26
-24 -48 12 -13 19 -13 34 -4 15 10 20 9 25 -2 7 -18 57 -20 74 -3 9 9 12 4 12
-25 0 -26 -4 -37 -15 -37 -8 0 -15 -5 -15 -10 0 -6 -17 2 -37 19 -21 16 -57
35 -80 42 -36 10 -40 14 -30 30 12 19 -5 49 -28 49 -24 0 -40 -30 -27 -50 9
-15 7 -19 -14 -23 -24 -4 -33 6 -14 18 6 3 10 21 10 40 0 24 -7 39 -25 53 -15
12 -21 23 -15 27 16 10 12 42 -7 49 -19 8 -45 -18 -37 -38 2 -6 -9 -22 -26
-35 -26 -19 -31 -28 -28 -59 2 -28 10 -41 34 -57 l31 -21 -37 -26 c-35 -26
-36 -26 -48 -7 -14 21 -42 25 -60 7 -9 -9 -13 -7 -18 5 -8 21 -43 22 -50 3 -5
-12 -11 -11 -37 5 -19 11 -50 19 -75 19 -40 0 -43 2 -36 23 9 31 11 32 29 13
25 -25 69 -24 98 1 21 20 22 71 2 93 -14 16 -11 18 46 23 118 10 233 89 280
192 l18 39 11 -28 c5 -15 19 -30 31 -33 17 -5 14 -8 -19 -23 -74 -33 -94 -102
-46 -159 35 -42 83 -50 130 -22 19 12 39 19 44 16 5 -3 11 -1 14 4 4 5 2 12
-3 16 -5 3 -10 23 -9 44 0 46 -26 89 -60 98 -25 6 -25 6 11 25 44 22 57 59 36
97 -21 38 -63 50 -100 29 l-29 -17 0 64 c0 95 -30 167 -99 236 -95 95 -231
125 -352 79 l-52 -19 26 27 c14 15 39 51 55 80 22 40 31 49 36 37 3 -10 15
-15 28 -13 18 2 23 9 23 33 0 26 -3 30 -28 30 -22 -1 -27 3 -25 19 2 15 11 21
28 21 31 0 36 38 5 44 -20 3 -35 18 -35 35 0 6 5 5 12 -2 28 -28 78 -7 78 33
0 42 -54 62 -80 29 -12 -13 -17 -9 -37 34 -13 27 -47 72 -76 99 -117 111 -259
123 -429 35 -5 -2 -8 6 -8 17 0 11 -11 28 -25 37 -23 15 -27 15 -50 0 -14 -9
-25 -20 -25 -25 0 -5 -8 -7 -19 -4 -24 6 -36 -13 -21 -33 9 -10 16 -11 25 -4
9 7 16 6 25 -5 7 -8 24 -15 38 -15 l25 0 -20 -22 c-12 -13 -30 -39 -42 -58
-12 -19 -21 -28 -21 -19 0 28 -40 69 -66 69 -15 0 -24 6 -24 15 0 8 -9 15 -20
15 -11 0 -20 -7 -20 -15 0 -8 5 -15 12 -15 6 0 4 -7 -5 -18 -25 -28 -22 -87 5
-106 35 -25 73 -20 99 12 21 27 21 27 13 2 -5 -14 -9 -65 -9 -115 1 -79 4 -97
29 -144 15 -29 48 -73 73 -97 24 -24 38 -44 30 -44 -20 0 -47 -33 -47 -57 0
-11 8 -27 18 -36 40 -37 97 -8 90 45 -4 23 -2 28 11 22 9 -3 43 -11 77 -17 60
-10 132 0 199 28 13 6 5 -8 -22 -39 -23 -26 -50 -71 -60 -99 -25 -73 -23 -178
5 -239 11 -27 20 -48 19 -48 -2 0 -20 9 -42 20 -163 83 -321 -125 -198 -261
41 -45 90 -64 149 -55 39 5 44 3 44 -14 0 -11 9 -24 19 -30 26 -13 27 -13 50
11 12 13 21 17 26 10 3 -6 18 -11 32 -11 l25 0 -30 -34 c-41 -47 -48 -94 -23
-151 25 -56 70 -85 131 -85 91 0 146 62 138 156 -5 60 13 81 39 44 8 -11 23
-20 33 -20 18 0 18 -2 3 -46 -48 -140 56 -291 207 -302 32 -2 75 1 95 8 50 16
114 75 136 125 26 55 25 149 -1 200 -24 47 -23 42 -6 48 11 4 22 -10 39 -46
62 -135 239 -225 371 -189 l38 11 -50 -48 c-28 -26 -62 -70 -76 -97 -14 -27
-25 -42 -26 -33 0 26 -44 59 -76 59 -36 0 -74 -36 -74 -69 0 -21 -1 -21 -22
-7 -12 9 -34 16 -49 16 -30 0 -79 -34 -79 -56 0 -12 -4 -12 -25 2 -54 35 -115
-20 -80 -72 20 -30 68 -32 88 -4 14 19 14 19 37 -5 48 -52 140 -19 140 50 0
27 1 27 18 12 24 -22 70 -22 94 0 17 15 18 14 18 -36 0 -48 -1 -51 -16 -37
-24 24 -63 20 -75 -8 -13 -27 3 -66 26 -66 8 0 15 -7 15 -16 0 -16 24 -15 26
2 1 17 16 44 24 44 4 0 10 -14 14 -32 8 -42 59 -120 104 -159 69 -61 189 -96
273 -81 l46 9 -14 -27 c-28 -57 30 -117 87 -89 14 7 33 11 43 10 15 -2 16 1 8
16 -5 10 -12 31 -16 46 -3 16 -18 35 -34 45 l-29 18 27 12 c40 17 118 99 141
147 11 22 24 65 30 95 10 50 20 77 20 52 0 -16 33 -15 48 0 9 9 12 9 12 -3 0
-9 11 -26 25 -39 l25 -23 -31 -19 c-26 -16 -30 -23 -27 -56 2 -28 -1 -39 -16
-47 -27 -14 -30 -30 -10 -49 20 -21 36 -17 49 12 6 15 20 22 44 24 47 4 71 43
54 88 -10 26 -9 30 6 30 10 0 35 11 56 25 29 20 40 23 51 14 8 -6 14 -17 14
-25 0 -7 6 -19 14 -27 13 -13 11 -18 -15 -43 -16 -15 -29 -22 -29 -16 0 18
-30 14 -37 -4 -5 -15 14 -37 27 -29 3 2 5 -23 5 -55 0 -41 5 -64 18 -77 26
-30 21 -34 -20 -16 -25 11 -67 17 -118 17 -69 1 -89 -4 -147 -31 l-67 -31 -10
29 c-5 16 -17 32 -26 35 -15 6 -45 -11 -45 -27 0 -15 31 -38 44 -33 31 12 27
-20 -7 -54 -41 -42 -82 -127 -92 -189 -5 -30 -12 -42 -27 -47 -18 -4 -19 -8
-9 -20 7 -9 18 -14 24 -13 6 1 14 -17 18 -41 19 -104 113 -213 217 -252 77
-29 177 -29 254 0 60 22 144 89 167 134 11 19 18 23 27 15 16 -13 30 7 16 24
-7 8 -6 33 5 77 26 112 -7 232 -88 316 l-40 41 44 0 c42 0 43 -1 39 -29 -5
-36 13 -58 49 -58 51 0 66 80 19 95 -20 6 -20 7 4 36 84 100 19 249 -109 249
-28 0 -35 4 -35 20 0 18 -39 50 -41 33 0 -4 -4 2 -9 15 -5 12 -15 22 -23 22
-9 0 -12 10 -9 34 8 67 -48 126 -118 126 -60 0 -120 -52 -120 -105 0 -12 -6
-15 -19 -10 -11 3 -22 1 -26 -5 -13 -20 -25 -9 -25 23 0 49 -54 149 -106 197
-73 67 -122 85 -235 85 l-96 0 31 24 c48 38 77 78 104 144 21 51 24 73 20 136
-3 46 -13 94 -25 122 -20 45 -20 46 -2 42 41 -11 67 49 34 77 -20 17 -62 5
-70 -20 -6 -20 -9 -19 -45 12 -21 18 -39 35 -39 38 -1 4 15 4 34 2 47 -6 119
30 145 72 40 66 38 143 -5 194 l-24 29 55 -5 c46 -4 60 -1 93 21 37 25 71 78
71 114 1 11 6 6 15 -15 17 -39 56 -57 96 -43 l27 9 -14 -33 c-38 -93 -25 -222
32 -306 27 -41 32 -54 23 -66 -9 -11 -9 -17 0 -26 10 -9 15 -9 23 4 10 14 17
12 59 -17 45 -30 121 -54 171 -54 l21 0 -21 -23 c-32 -34 -30 -89 4 -116 15
-12 40 -21 56 -21 32 0 78 39 78 65 0 11 6 15 19 10 22 -7 46 18 37 40 -7 18
-37 20 -54 3 -9 -9 -12 -9 -12 0 0 7 -13 20 -29 30 l-30 18 43 12 c62 16 136
71 176 131 l35 52 8 -30 c7 -30 49 -61 81 -61 8 0 28 12 45 26 73 61 -1 175
-86 132 l-28 -14 0 86 c0 71 -4 94 -26 141 -70 149 -250 233 -400 186 l-47
-14 14 32 c25 60 -20 125 -86 125 -35 0 -80 -53 -80 -93 0 -40 37 -84 75 -89
23 -3 22 -5 -20 -46 l-45 -44 0 30 c0 35 -39 72 -75 72 -28 0 -75 -36 -75 -58
0 -9 -11 6 -24 35 -19 39 -34 57 -65 72 -67 35 -146 21 -187 -31 -11 -14 -25
-23 -33 -20 -10 3 -12 0 -8 -12 4 -10 7 -39 7 -65 0 -34 7 -58 24 -83 l23 -35
-43 10 c-115 27 -229 -92 -195 -203 6 -21 24 -54 39 -72 22 -27 24 -31 7 -23
-11 4 -37 10 -57 13 -34 4 -37 6 -27 24 7 14 7 23 -2 34 -25 31 -69 1 -50 -34
10 -18 7 -20 -32 -24 l-42 -3 36 37 c21 20 40 46 44 57 5 16 12 20 25 16 25
-8 37 15 17 30 -11 8 -17 27 -17 56 0 64 -40 141 -91 178 l-42 31 51 0 c52 0
62 -6 41 -27 -9 -9 -8 -18 5 -37 18 -29 28 -31 57 -16 23 13 25 47 4 69 -13
15 -10 18 28 32 l43 15 -4 -28 c-5 -36 13 -58 47 -58 34 0 51 17 51 50 0 31
-17 50 -44 50 -16 0 -10 9 27 47 73 73 101 140 102 243 0 77 -3 92 -33 152
-22 45 -50 82 -85 113 -28 25 -46 45 -38 45 8 0 11 6 7 15 -4 10 1 15 15 15
11 0 19 -6 18 -12 -4 -35 16 -53 45 -42 30 12 29 64 -1 64 -10 0 -6 11 15 35
34 39 48 87 38 140 -8 40 -47 91 -78 101 -17 5 -5 11 53 28 41 12 90 33 109
46 29 20 33 21 27 6 -11 -29 18 -66 51 -66 35 0 52 16 52 50 0 32 -17 50 -47
50 -28 0 -29 11 -4 34 37 34 72 131 73 203 0 87 -14 139 -56 201 l-33 50 23
11 c16 7 24 19 24 35 0 47 -62 55 -77 10 l-8 -24 -29 19 c-27 18 -27 19 -8 25
43 14 39 81 -4 92 -36 9 -67 -22 -60 -58 5 -26 4 -27 -20 -18 -32 13 -149 13
-192 1 -29 -9 -31 -8 -22 9 24 45 -6 100 -55 100 l-25 0 20 33 c27 43 27 121
0 165 -32 52 -75 73 -143 70 -45 -2 -56 0 -52 11 3 7 0 20 -6 28 -9 10 -9 17
-1 25 18 18 14 46 -7 58 -24 13 -24 13 -39 -2z m123 -994 c16 -24 16 -26 -2
-39 -14 -11 -15 -16 -6 -26 9 -9 16 -9 26 -1 11 9 19 7 36 -12 19 -20 20 -24
7 -29 -9 -4 -16 -14 -16 -22 0 -13 -5 -14 -22 -8 -13 4 -42 8 -64 8 l-42 0 24
28 c25 30 49 101 39 117 -14 23 4 8 20 -16z m214 -169 l33 -7 -39 -18 c-21 -9
-50 -31 -65 -48 l-25 -30 -12 38 c-6 21 -18 43 -26 50 -14 11 -13 15 5 27 12
9 19 21 16 29 -4 10 8 7 37 -10 23 -13 57 -27 76 -31z m-1085 -1581 c53 -24
57 -28 38 -35 -12 -5 -27 -20 -33 -33 -11 -23 -14 -24 -33 -11 -11 8 -28 15
-37 15 -25 0 -69 -39 -69 -60 0 -13 -5 -17 -14 -14 -11 4 -8 16 16 54 27 43
30 56 26 105 l-5 56 26 -25 c14 -14 53 -37 85 -52z"/>
<path d="M5496 6569 c-49 -38 -24 -129 36 -129 l21 0 -20 -22 c-48 -53 -57
-127 -24 -188 21 -39 89 -80 133 -80 104 0 180 107 147 207 -9 27 -9 38 0 41
16 5 14 32 -3 32 -8 0 -17 -4 -21 -10 -3 -5 -22 2 -42 15 -24 17 -50 25 -79
25 -47 0 -49 2 -34 30 14 26 -6 75 -36 89 -35 16 -47 14 -78 -10z"/>
<path d="M6953 6543 c-7 -3 -13 -13 -13 -23 0 -12 -8 -20 -22 -22 -17 -2 -23
-10 -23 -30 1 -22 -6 -28 -36 -37 -73 -22 -119 -110 -98 -186 20 -72 106 -129
169 -112 29 8 23 -3 -26 -47 -25 -22 -42 -32 -39 -24 8 19 -32 68 -55 68 -12
0 -17 5 -14 13 7 20 -18 38 -36 27 -12 -7 -13 -13 -4 -28 9 -14 8 -23 -7 -41
-25 -31 -24 -47 7 -78 20 -20 32 -24 56 -19 26 5 29 4 23 -12 -5 -9 -14 -42
-22 -72 -14 -52 -16 -55 -46 -55 -25 0 -33 -5 -35 -21 -4 -30 24 -51 49 -36
16 10 19 9 25 -16 21 -100 75 -181 152 -231 27 -17 54 -31 60 -31 15 0 16 -17
2 -25 -17 -10 -11 -44 9 -54 26 -15 56 9 48 38 -5 21 -3 22 36 16 23 -4 44
-11 45 -16 5 -14 22 -11 22 4 0 7 23 18 52 25 68 16 148 69 189 127 21 29 35
41 40 34 9 -16 39 -4 39 16 0 8 -8 15 -19 15 -17 0 -17 3 -4 53 36 133 -29
297 -148 373 -83 52 -234 69 -300 34 -19 -11 -19 -9 5 26 54 80 26 185 -61
228 -35 18 -39 24 -29 37 6 9 20 18 31 20 26 5 32 45 8 57 -10 5 -24 7 -30 5z"/>
<path d="M4312 6453 c2 -19 -1 -27 -11 -25 -16 3 -41 -16 -41 -33 0 -20 33
-28 45 -11 7 9 16 11 24 7 10 -7 10 -14 -4 -35 -15 -22 -16 -32 -7 -52 16 -34
55 -50 87 -36 49 22 42 105 -10 118 -16 4 -24 12 -21 20 3 7 -3 21 -12 30 -9
10 -17 22 -17 28 0 6 -8 12 -18 14 -14 3 -17 -2 -15 -25z"/>
<path d="M7301 6450 c-18 -12 -38 -34 -44 -50 -10 -26 -12 -27 -32 -14 -40 26
-87 -15 -65 -56 11 -21 70 -29 70 -10 0 17 17 11 24 -7 3 -10 9 -24 12 -32 4
-9 2 -11 -4 -7 -7 4 -21 2 -32 -4 -27 -15 -27 -65 1 -80 26 -14 69 11 69 40 0
13 5 18 15 14 8 -4 15 -12 15 -20 0 -19 19 -18 26 1 4 8 16 15 29 15 30 0 69
32 85 69 41 100 -77 198 -169 141z"/>
<path d="M6165 6451 c-3 -6 -4 -15 -1 -19 3 -5 -16 -14 -41 -21 -60 -15 -136
-89 -152 -146 -20 -74 -6 -161 35 -206 16 -18 16 -19 -10 -19 -32 0 -56 -41
-39 -68 24 -39 101 -14 88 28 -5 16 -1 15 39 -4 38 -18 43 -24 39 -47 -3 -15
0 -30 7 -34 7 -4 -3 -17 -29 -36 -91 -67 -119 -205 -61 -306 33 -57 71 -89
133 -110 l42 -13 -41 5 c-92 11 -206 -30 -275 -98 -40 -41 -89 -123 -89 -151
0 -8 -10 -16 -22 -18 -26 -3 -32 -34 -7 -32 13 1 17 -12 21 -70 6 -86 37 -152
100 -213 180 -175 477 -102 558 138 15 42 19 47 30 34 26 -32 80 -12 80 30 0
12 -5 26 -12 33 -15 15 -50 16 -64 2 -7 -7 -13 10 -20 50 -7 40 -7 57 0 50 15
-15 54 -12 64 6 7 13 11 12 25 -10 44 -67 115 -105 195 -106 92 0 175 53 208
134 l19 44 20 -36 c55 -99 186 -111 256 -25 14 18 19 21 14 8 -16 -37 -17
-140 -2 -176 45 -108 171 -172 273 -137 l40 14 -4 -28 c-5 -36 13 -58 47 -58
34 0 51 17 51 50 0 31 -17 50 -44 50 -18 0 -16 4 11 33 49 51 66 95 67 164 0
55 2 62 20 65 27 4 34 45 10 55 -9 3 -24 1 -34 -5 -14 -9 -21 -5 -39 19 l-22
29 23 0 c12 0 32 10 45 22 23 21 23 21 23 1 0 -35 59 -140 99 -176 l39 -35
-48 -4 c-89 -9 -147 -78 -137 -166 9 -84 74 -136 160 -129 57 5 95 30 120 78
23 43 18 115 -11 156 l-21 30 57 -15 c70 -18 161 -6 234 32 l48 25 0 -24 c0
-20 -5 -25 -23 -25 -26 0 -57 -28 -57 -52 0 -21 32 -48 58 -48 23 0 58 43 47
59 -4 7 5 9 23 5 57 -11 96 61 54 99 -10 10 -28 17 -40 17 -28 0 -28 6 2 41
34 40 66 131 66 188 0 46 1 48 25 43 31 -6 45 22 21 46 -12 13 -19 14 -28 4
-17 -17 -28 -15 -28 6 0 36 -53 123 -101 166 -36 32 -45 45 -34 50 19 7 19 35
0 42 -18 7 -47 -14 -39 -27 7 -12 4 -11 -46 6 -59 21 -159 19 -224 -4 l-54
-19 13 32 c36 86 -54 173 -136 132 -18 -9 -33 -16 -34 -16 -1 0 0 13 3 28 3
20 -4 38 -23 60 -55 65 -155 29 -155 -56 0 -65 61 -108 122 -84 28 10 28 10
28 -30 0 -54 43 -98 95 -98 l36 0 -35 -43 c-43 -53 -72 -116 -81 -179 -6 -42
-9 -45 -22 -33 -19 20 -68 19 -87 -1 -9 -8 -16 -28 -16 -44 l0 -29 -35 15
c-19 7 -58 14 -86 14 -45 0 -50 2 -39 15 10 12 10 21 2 40 -13 28 -52 34 -72
10 -10 -12 -15 -12 -35 1 -27 18 -58 7 -69 -23 -7 -17 -8 -17 -17 0 -14 25
-83 57 -121 57 -45 0 -107 -38 -129 -79 l-18 -33 -10 38 c-34 126 -173 202
-293 161 -41 -13 -46 -13 -55 2 -9 12 -14 13 -24 4 -9 -9 -9 -15 0 -26 9 -11
8 -17 -4 -27 -13 -11 -15 -9 -15 12 0 56 -61 93 -107 63 -68 -45 -27 -151 51
-131 l25 6 -14 -35 c-8 -19 -15 -60 -15 -91 0 -46 -3 -55 -15 -50 -9 3 -25 -4
-36 -15 -11 -11 -22 -19 -24 -17 -1 2 -10 18 -19 35 -36 71 -105 131 -185 159
-32 12 -33 13 -10 14 117 2 238 110 239 214 l0 30 31 -32 c18 -18 42 -35 55
-38 42 -11 91 5 118 37 47 56 46 106 -2 159 -54 61 -152 46 -190 -30 l-18 -38
-12 31 c-10 26 -9 32 8 44 11 8 17 20 14 28 -8 19 -43 19 -50 1 -5 -12 -9 -11
-24 4 -41 41 -102 64 -170 64 -60 0 -65 2 -66 22 -2 19 4 22 47 26 60 6 119
44 156 100 25 37 28 51 28 124 0 75 -3 86 -30 126 -31 45 -118 98 -161 98 -14
0 -21 6 -20 16 1 20 -19 30 -29 15z m1221 -1085 c18 -19 18 -26 -1 -26 -9 0
-36 -21 -62 -46 -25 -26 -43 -39 -40 -29 4 9 7 32 7 50 0 28 3 32 19 28 11 -3
27 3 38 15 22 25 21 25 39 8z"/>
<path d="M7064 6409 c-9 -16 21 -43 38 -33 7 5 21 7 31 5 13 -2 18 3 15 16 -4
20 -72 31 -84 12z"/>
<path d="M5839 6348 c-10 -18 -8 -24 8 -38 17 -13 18 -19 8 -33 -7 -9 -17 -17
-24 -17 -6 0 -11 -4 -11 -10 0 -5 6 -10 13 -10 7 0 18 -9 25 -20 14 -22 61
-27 80 -8 23 23 14 67 -16 86 -16 9 -27 23 -24 30 5 16 -16 42 -34 42 -7 0
-19 -10 -25 -22z"/>
<path d="M6475 6345 c-14 -13 -25 -31 -25 -40 0 -24 39 -57 64 -53 19 4 21 0
21 -37 l0 -42 -41 5 c-35 4 -44 1 -58 -19 -22 -33 -20 -62 7 -87 43 -40 107
-17 107 39 l0 30 26 -20 c65 -51 164 0 164 84 0 77 -85 130 -151 95 -16 -9
-19 -7 -19 9 0 19 -43 61 -62 61 -5 0 -20 -11 -33 -25z"/>
<path d="M9049 6250 c-24 -23 -30 -37 -27 -62 2 -25 -2 -36 -17 -44 -11 -5
-20 -17 -19 -25 1 -10 -11 -14 -42 -14 -47 0 -88 -29 -98 -70 -6 -23 -7 -24
-35 -8 -27 16 -30 16 -55 0 -42 -28 -30 -86 21 -102 17 -4 29 1 48 19 24 24
25 24 35 6 15 -29 68 -53 97 -45 23 5 21 1 -20 -45 -118 -131 -117 -336 2
-463 48 -51 107 -90 154 -101 25 -6 26 -8 12 -23 -19 -19 -16 -42 8 -57 24
-15 52 5 50 37 -1 23 2 25 59 30 143 13 280 130 308 262 5 24 11 29 35 30 25
0 30 4 29 23 0 16 5 22 22 22 31 0 54 26 54 60 0 16 -7 36 -16 44 -8 9 -28 16
-44 16 -16 0 -36 -7 -44 -16 -19 -19 -21 -65 -4 -82 10 -10 10 -15 -2 -22 -12
-8 -16 0 -22 46 -18 135 -105 245 -230 290 -61 22 -172 20 -234 -3 l-50 -20
15 42 c14 39 13 44 -5 76 -19 32 -19 35 -3 51 15 14 23 15 47 6 42 -16 89 5
110 49 14 30 14 36 -1 68 -29 61 -92 72 -138 25z"/>
<path d="M9270 6220 c-25 -25 -25 -35 -2 -57 9 -10 17 -27 17 -38 0 -11 7 -20
15 -20 9 0 14 8 13 20 -1 11 5 24 13 28 21 12 18 64 -5 77 -26 13 -28 13 -51
-10z"/>
<path d="M8361 6117 c-50 -19 -111 -75 -132 -121 -24 -53 -24 -139 0 -192 19
-41 94 -114 118 -114 7 0 13 -9 13 -20 0 -11 5 -20 10 -20 6 0 10 5 10 10 0 6
19 10 43 10 23 0 57 4 75 9 36 11 40 6 16 -20 -9 -10 -20 -35 -24 -56 -29
-126 100 -235 222 -188 13 5 15 2 11 -13 -6 -26 33 -55 57 -42 31 16 33 43 7
66 l-24 21 20 28 c13 18 22 48 25 84 3 46 0 62 -20 90 -39 58 -72 76 -137 76
l-58 0 28 38 c107 148 13 350 -168 363 -33 2 -73 -2 -92 -9z"/>
<path d="M5186 6044 c-9 -8 -16 -21 -16 -29 0 -7 -9 -15 -21 -18 -15 -4 -20
-12 -17 -28 4 -28 21 -34 41 -14 9 8 28 15 44 15 34 0 53 16 53 45 0 43 -53
61 -84 29z"/>
<path d="M6645 5980 c-10 -11 -15 -28 -12 -40 4 -15 0 -20 -13 -20 -23 0 -32
-13 -24 -34 8 -22 45 -20 51 2 3 14 11 18 28 14 14 -2 23 -9 22 -15 -1 -6 5
-12 14 -14 12 -3 16 6 17 49 0 29 -4 58 -10 65 -16 19 -52 16 -73 -7z"/>
<path d="M7958 5939 c-24 -13 -23 -45 1 -66 14 -12 18 -24 14 -44 -11 -54 71
-75 91 -23 3 9 4 20 0 25 -3 5 0 9 5 9 6 0 11 7 11 16 0 12 -4 14 -12 7 -9 -6
-21 -6 -35 2 -16 8 -19 15 -11 29 7 13 5 22 -8 37 -19 21 -31 23 -56 8z"/>
<path d="M5105 5896 c-21 -32 -5 -66 30 -66 16 0 23 -4 19 -13 -7 -18 22 -41
41 -33 8 3 15 12 15 21 0 8 8 15 18 15 46 0 60 65 15 76 -28 8 -58 -19 -49
-43 3 -7 1 -13 -4 -13 -6 0 -10 13 -10 30 0 19 -7 33 -19 40 -29 15 -39 13
-56 -14z"/>
<path d="M9564 5896 c-8 -21 3 -36 27 -36 15 0 20 6 17 22 -4 27 -35 37 -44
14z"/>
<path d="M8686 5864 c-9 -8 -16 -22 -16 -29 0 -17 40 -46 52 -39 5 3 15 -2 22
-11 11 -15 13 -15 25 -1 11 13 11 17 -3 22 -9 3 -16 16 -16 28 0 42 -36 59
-64 30z"/>
<path d="M4063 5807 c-4 -8 -16 -16 -25 -20 -22 -8 -24 -45 -3 -53 18 -7 47
14 42 30 -2 6 3 16 11 22 8 6 12 16 8 22 -10 16 -23 15 -33 -1z"/>
<path d="M9624 5805 c-9 -23 3 -45 26 -45 25 0 37 25 20 45 -16 19 -39 19 -46
0z"/>
<path d="M8781 5776 c-13 -15 -9 -81 5 -81 5 0 15 -4 22 -8 11 -8 16 -2 13 16
-1 4 5 18 13 29 28 39 -22 81 -53 44z"/>
<path d="M4217 5740 c-52 -41 -44 -136 14 -165 47 -25 87 -19 122 18 18 17 39
32 47 32 8 0 16 8 18 18 2 12 -3 17 -17 17 -15 0 -21 6 -21 21 0 11 -13 34
-29 50 -37 36 -94 40 -134 9z"/>
<path d="M7574 5676 c-18 -8 -37 -22 -43 -33 -6 -10 -11 -12 -11 -5 0 15 -26
16 -36 0 -4 -6 0 -16 9 -23 10 -7 17 -26 17 -42 0 -17 11 -47 25 -67 18 -26
21 -36 10 -36 -19 0 -37 -34 -29 -55 19 -48 89 -36 82 15 -4 26 -1 28 35 33
61 8 100 53 100 112 0 38 -5 52 -29 76 -36 35 -86 45 -130 25z"/>
<path d="M4924 5625 c-3 -8 -2 -20 2 -27 5 -7 9 -20 9 -28 0 -8 7 -15 15 -15
10 0 15 10 15 30 1 46 -28 74 -41 40z"/>
<path d="M4694 5615 c-4 -8 -4 -22 0 -30 4 -12 -4 -15 -38 -15 -23 0 -65 -7
-92 -15 -27 -8 -50 -15 -51 -15 0 0 1 9 4 20 11 42 -49 69 -77 35 -16 -20 -5
-62 19 -70 17 -5 14 -11 -26 -48 -56 -51 -100 -140 -109 -218 -6 -56 -7 -56
-25 -38 -11 11 -32 19 -47 19 -32 0 -72 -36 -72 -65 0 -15 -3 -16 -12 -7 -7 7
-27 12 -45 12 -26 0 -36 -6 -45 -25 -14 -31 1 -70 29 -77 28 -7 64 9 70 32 5
20 5 20 30 0 14 -11 36 -20 49 -20 25 0 64 32 64 53 0 6 16 -20 35 -59 52
-107 127 -166 243 -194 59 -14 135 -8 189 15 29 12 33 12 33 -1 0 -8 -10 -14
-23 -14 -47 0 -64 -52 -27 -85 16 -15 26 -17 48 -9 24 9 27 15 26 52 0 23 3
42 8 42 4 0 8 7 8 15 0 8 -5 15 -11 15 -6 0 14 23 45 51 74 67 108 137 114
235 3 53 8 72 15 65 28 -28 87 3 87 46 0 23 -30 53 -53 53 -9 0 -26 -9 -38
-21 -11 -11 -21 -19 -22 -17 -1 2 -14 26 -28 55 -24 48 -25 52 -8 56 11 3 19
12 19 21 0 24 -31 33 -44 14 -9 -15 -14 -13 -47 13 -41 33 -115 68 -142 69
-14 0 -15 3 -6 19 7 10 9 26 6 35 -8 20 -46 21 -53 1z"/>
<path d="M9640 5610 c-25 -25 -26 -64 -2 -88 18 -18 17 -19 -29 -35 -56 -20
-104 -71 -119 -128 -13 -47 -6 -90 22 -138 17 -31 18 -35 4 -43 -21 -12 -20
-45 0 -56 11 -6 13 -11 5 -16 -6 -4 -11 -20 -11 -36 0 -60 87 -79 112 -25 16
35 -3 74 -40 81 -18 4 -28 12 -28 23 0 17 3 17 45 -2 80 -35 168 -7 222 71 34
50 34 146 1 192 l-23 31 22 18 c25 20 21 47 -8 58 -10 4 -23 13 -29 21 -6 8
-16 12 -22 8 -8 -5 -12 3 -12 23 0 55 -70 81 -110 41z m130 -122 c0 -15 -4
-18 -17 -13 -10 4 -26 10 -35 12 -16 5 -15 7 5 23 25 21 47 10 47 -22z"/>
<path d="M8633 5320 c-80 -26 -161 -99 -200 -178 -23 -48 -27 -70 -28 -142 0
-77 3 -92 33 -152 18 -36 50 -82 71 -101 l40 -36 -30 -6 c-59 -13 -79 -86 -34
-130 48 -49 125 -16 125 54 0 20 -5 42 -12 49 -8 8 -2 8 26 0 36 -11 36 -12
16 -30 -25 -23 -25 -43 -2 -65 9 -10 17 -27 17 -38 0 -13 7 -20 20 -20 15 0
20 7 20 25 0 14 6 34 12 46 7 13 8 25 2 35 -14 23 -12 24 49 26 32 1 70 6 85
12 26 10 27 9 21 -13 -14 -57 51 -90 91 -46 15 17 16 24 7 45 -7 14 -21 29
-33 33 -19 7 -17 10 21 37 23 16 46 37 51 47 8 16 13 17 25 7 10 -8 18 -9 25
-2 7 7 5 14 -4 22 -12 10 -12 17 5 50 53 107 37 257 -37 358 -16 20 -15 21 17
20 27 -2 34 2 36 21 4 29 -23 40 -47 18 -10 -9 -21 -13 -24 -9 -4 3 -7 1 -7
-6 0 -7 -14 -1 -33 13 -91 70 -216 91 -324 56z"/>
<path d="M3309 5211 c-24 -24 -29 -38 -29 -77 0 -41 5 -51 36 -80 19 -19 30
-34 24 -34 -6 0 -10 -10 -8 -22 4 -33 53 -33 52 -1 0 17 8 25 33 34 76 25 100
123 44 180 -24 24 -38 29 -76 29 -38 0 -52 -5 -76 -29z"/>
<path d="M6960 5155 c-7 -8 -10 -26 -8 -39 5 -24 4 -25 -42 -19 -50 6 -136
-10 -182 -34 -25 -12 -28 -12 -28 2 0 17 -25 20 -35 5 -4 -6 -2 -17 5 -25 9
-11 6 -17 -14 -31 -15 -9 -40 -38 -58 -65 l-31 -49 -18 30 c-15 24 -26 30 -52
30 -46 0 -71 -28 -65 -75 4 -34 3 -35 -32 -35 -57 -1 -100 -47 -100 -110 0
-23 10 -42 34 -66 47 -47 95 -47 142 0 38 38 44 77 20 124 -14 27 -13 28 17
38 l32 9 0 -95 c0 -81 4 -103 25 -145 31 -64 101 -134 165 -165 43 -22 64 -25
153 -25 79 0 102 -3 102 -14 0 -9 7 -11 21 -8 12 3 30 0 40 -6 15 -9 22 -8 35
5 18 18 12 55 -11 60 -9 2 0 15 25 36 40 33 40 33 40 9 0 -49 61 -74 93 -39
38 41 0 114 -51 98 -17 -6 -16 -1 9 49 45 90 47 187 4 297 -9 24 27 18 40 -7
6 -11 18 -21 27 -23 16 -3 48 22 48 38 0 17 -33 41 -51 37 -10 -3 -20 1 -23 9
-8 21 -56 18 -56 -3 0 -13 -12 -5 -37 25 -20 24 -60 57 -90 74 -44 25 -52 33
-39 40 19 11 21 49 4 66 -16 16 -43 15 -58 -3z"/>
<path d="M5006 5069 c-15 -12 -26 -30 -26 -45 0 -29 33 -64 60 -64 11 0 20 -7
20 -15 0 -8 7 -15 16 -15 12 0 15 6 11 23 -3 12 1 31 9 41 20 28 18 43 -11 71
-29 30 -45 31 -79 4z"/>
<path d="M7142 5068 c-18 -18 -15 -41 11 -63 22 -19 31 -21 33 -7 0 4 4 15 9
26 15 35 -26 71 -53 44z"/>
<path d="M8315 4971 c-3 -6 -4 -15 0 -21 3 -5 -7 -16 -23 -24 -53 -28 -58 -90
-11 -130 35 -30 49 -32 88 -11 59 30 56 111 -4 143 -11 6 -20 18 -20 28 0 20
-20 30 -30 15z"/>
<path d="M7380 4860 c-43 -43 -4 -129 54 -118 29 6 31 3 13 -30 l-13 -23 -19
21 c-25 27 -59 25 -83 -5 -11 -14 -25 -25 -31 -25 -6 0 -11 -7 -11 -16 0 -9 6
-14 12 -12 7 3 20 -5 29 -16 16 -19 16 -21 -2 -34 -36 -25 -17 -72 28 -72 30
0 52 42 34 63 -9 12 -6 18 13 30 23 16 24 15 41 -29 15 -41 67 -94 92 -94 5 0
8 -19 6 -43 -3 -30 1 -47 11 -56 18 -15 52 -6 60 15 8 20 -11 54 -29 54 -32 0
-13 18 25 23 21 3 53 15 71 27 34 25 68 90 69 129 0 41 -39 109 -76 132 -39
24 -117 29 -153 10 -19 -11 -21 -9 -21 19 0 39 -31 70 -70 70 -17 0 -39 -9
-50 -20z"/>
<path d="M5843 4785 c-17 -19 -16 -35 2 -35 8 0 15 4 15 9 0 5 3 16 6 25 8 20
-7 20 -23 1z"/>
<path d="M8423 4767 c3 -8 1 -20 -3 -27 -13 -21 8 -52 33 -48 31 4 37 54 8 63
-12 3 -21 11 -21 16 0 5 -5 9 -11 9 -6 0 -9 -6 -6 -13z"/>
<path d="M6137 4754 c-4 -4 -7 -16 -7 -26 0 -20 -10 -23 -25 -9 -11 10 -36 14
-73 12 -13 0 -37 -14 -53 -30 -16 -16 -29 -26 -29 -21 0 5 -10 12 -21 15 -29
9 -53 -16 -44 -45 6 -18 13 -21 36 -18 23 4 29 1 29 -13 0 -33 49 -79 91 -85
23 -4 39 -12 39 -20 0 -15 26 -19 34 -6 2 4 1 14 -3 21 -5 8 1 23 16 39 20 21
24 35 21 69 -3 38 -1 42 21 45 32 4 50 32 35 56 -11 18 -54 28 -67 16z"/>
<path d="M4760 4732 c-49 -26 -83 -93 -76 -150 3 -24 2 -41 -3 -38 -5 3 -14
-1 -21 -10 -19 -22 3 -43 29 -27 16 10 22 8 37 -9 57 -63 162 -62 218 1 19 21
19 21 33 1 8 -11 23 -20 34 -20 10 0 19 -4 19 -10 0 -5 6 -10 13 -10 9 0 13
13 13 41 -1 44 -27 73 -57 64 -14 -5 -17 4 -21 50 -3 40 -11 62 -29 81 -52 56
-124 70 -189 36z"/>
<path d="M3785 4515 c-14 -13 -25 -34 -25 -46 0 -12 -8 -28 -17 -35 -15 -10
-16 -15 -5 -25 9 -10 15 -10 24 -1 7 7 16 8 22 3 6 -5 22 -11 36 -13 14 -1 31
-11 38 -21 17 -23 35 -11 28 18 -3 13 -2 27 4 30 5 3 10 21 10 40 0 24 -7 39
-26 54 -35 27 -59 26 -89 -4z"/>
<path d="M8680 4505 c-109 -31 -199 -113 -236 -217 -19 -55 -19 -171 0 -226
19 -52 70 -126 103 -148 23 -14 23 -17 9 -33 -21 -23 -20 -50 2 -57 9 -3 25
-10 34 -15 25 -13 38 -11 38 6 0 8 -6 15 -13 15 -7 0 -13 9 -13 20 0 11 1 20
1 20 1 0 22 -7 48 -16 43 -15 65 -44 33 -44 -38 0 -46 -70 -10 -84 40 -15 82
35 56 67 -23 30 -10 43 48 44 31 1 67 6 81 12 24 8 25 7 21 -18 -5 -34 19 -55
53 -47 20 5 25 13 25 37 0 17 -6 32 -15 35 -23 9 -18 19 25 48 48 31 104 114
120 176 21 78 18 75 38 56 27 -24 78 -21 96 6 33 46 4 108 -49 108 -14 0 -34
-9 -45 -20 -25 -25 -30 -25 -30 -2 0 33 -20 90 -45 126 -30 44 -30 46 -5 46
26 0 60 34 60 60 0 27 -35 60 -63 60 -29 0 -57 -29 -57 -58 0 -27 -1 -27 -46
3 -69 47 -178 63 -264 40z"/>
<path d="M7265 4451 c-85 -23 -152 -70 -207 -145 l-28 -39 0 35 c0 37 -34 82
-72 94 -30 9 -83 -4 -103 -26 -9 -10 -23 -16 -31 -13 -8 3 -14 -1 -14 -11 0
-9 3 -16 8 -16 4 0 7 -19 8 -41 1 -82 102 -130 167 -79 l25 20 -10 -37 c-16
-58 -5 -162 24 -224 25 -53 77 -115 123 -145 22 -14 23 -18 10 -31 -20 -19
-19 -30 3 -41 24 -13 42 -4 42 20 0 17 4 19 33 11 17 -4 68 -8 112 -8 103 0
171 31 245 112 41 44 55 70 72 129 20 67 23 72 34 53 28 -54 98 -63 146 -20
85 76 -9 209 -110 157 -17 -9 -34 -25 -37 -37 -9 -26 -12 -23 -29 34 -13 44
-13 46 4 37 47 -25 100 6 100 58 0 37 -28 62 -68 62 -21 0 -32 5 -32 14 0 21
-27 27 -41 9 -11 -12 -10 -17 3 -27 11 -8 14 -21 11 -40 l-6 -28 -44 51 c-60
69 -150 113 -240 117 -38 2 -81 0 -98 -5z"/>
<path d="M6005 4300 c-3 -5 -3 -16 2 -22 4 -7 6 -23 5 -35 -4 -27 26 -46 51
-32 25 15 21 40 -12 72 -32 30 -37 32 -46 17z"/>
<path d="M7940 4137 c0 -8 -11 -19 -25 -25 -34 -16 -36 -69 -2 -81 41 -16 81
24 59 59 -7 12 -7 21 0 28 6 6 7 15 4 21 -10 16 -36 14 -36 -2z"/>
<path d="M5945 4127 c-17 -8 -45 -31 -63 -51 -28 -32 -32 -44 -32 -94 0 -68
30 -121 79 -142 17 -7 31 -19 31 -26 0 -8 5 -14 10 -14 6 0 10 5 10 10 0 6 12
10 28 10 l27 -1 -30 -16 c-103 -54 -158 -178 -122 -280 l14 -42 -31 -3 c-27
-3 -31 -7 -34 -35 -3 -28 1 -33 23 -39 28 -7 55 9 55 33 0 10 13 3 38 -19 55
-50 119 -72 187 -65 l54 5 -11 -24 c-8 -17 -15 -21 -22 -14 -14 14 -49 13 -64
-2 -7 -7 -12 -21 -12 -33 0 -42 54 -62 80 -30 11 13 16 11 43 -11 36 -30 81
-27 110 7 39 47 5 129 -53 129 -23 0 -22 2 15 40 26 27 42 37 49 30 15 -15 46
-12 52 5 8 20 -15 47 -34 40 -10 -4 -12 -1 -7 12 4 10 10 37 12 60 17 132 -94
255 -229 257 -32 1 -58 2 -58 3 0 0 15 10 33 21 66 38 88 148 45 212 -13 18
-35 42 -49 53 -34 25 -105 31 -144 14z"/>
<path d="M6885 3943 c-11 -3 -35 -16 -52 -30 -26 -19 -33 -21 -33 -9 0 10 -9
16 -25 16 -20 0 -25 -5 -25 -25 0 -19 5 -25 21 -25 16 0 19 -4 14 -22 -4 -13
-14 -29 -24 -37 -12 -10 -13 -15 -3 -18 6 -3 12 -12 12 -20 0 -12 -3 -13 -14
-4 -21 18 -56 -3 -56 -33 0 -46 59 -60 75 -19 5 14 10 11 26 -16 26 -43 98
-75 150 -67 33 5 39 4 39 -12 0 -38 37 -54 64 -26 21 20 20 31 -3 51 -19 16
-19 16 2 44 19 27 22 28 38 13 27 -25 54 -14 54 21 0 25 -4 31 -27 33 -23 3
-28 8 -28 31 0 15 -10 47 -22 71 -34 67 -109 101 -183 83z"/>
<path d="M6330 3795 c-16 -20 -5 -62 19 -70 13 -4 17 -12 14 -29 -3 -15 2 -30
16 -43 14 -13 17 -23 11 -33 -16 -25 -11 -69 10 -90 41 -41 120 -10 120 46 0
28 -37 74 -60 74 -14 0 -18 7 -16 32 1 25 -4 35 -21 43 -17 7 -21 15 -17 32 8
29 -11 53 -41 53 -12 0 -28 -7 -35 -15z"/>
<path d="M3854 3781 c-46 -28 -61 -80 -37 -128 10 -21 29 -43 42 -49 23 -12
23 -12 -10 -19 -19 -4 -46 -14 -61 -21 -26 -13 -28 -13 -28 4 0 46 -54 56 -88
17 -22 -26 -30 -51 -12 -40 5 3 20 -1 33 -10 13 -8 27 -12 30 -8 4 3 7 2 7 -4
0 -6 -6 -16 -14 -22 -8 -6 -19 -25 -26 -41 -10 -24 -15 -27 -30 -18 -25 16
-52 3 -48 -24 2 -18 9 -23 31 -23 25 1 27 -2 27 -45 1 -94 75 -187 171 -211
45 -12 47 -14 29 -26 -26 -19 -27 -83 -2 -106 29 -26 77 -22 101 9 28 35 26
59 -4 90 -29 29 -31 34 -8 34 29 0 99 48 125 87 44 64 56 144 32 208 -4 9 6 7
34 -6 37 -18 43 -19 75 -5 45 18 69 55 65 98 -2 21 3 37 12 45 12 9 13 14 3
24 -9 9 -16 10 -23 3 -8 -8 -23 -5 -50 8 -34 17 -41 18 -73 5 -42 -18 -67 -52
-67 -91 0 -30 0 -30 -15 -8 -19 25 -94 72 -118 72 -23 0 -22 3 18 43 56 56 45
126 -25 162 -38 20 -59 19 -96 -4z"/>
<path d="M8886 3761 c-4 -5 -1 -22 4 -37 l11 -28 14 28 c8 16 12 32 9 37 -7
12 -31 12 -38 0z"/>
<path d="M8603 3713 c-7 -14 -11 -28 -10 -30 9 -8 57 24 55 37 -5 25 -32 22
-45 -7z"/>
<path d="M8740 3716 c-7 -9 -10 -27 -8 -41 3 -14 1 -28 -4 -31 -4 -3 -6 -10
-2 -15 4 -6 10 -6 19 1 7 6 19 8 27 5 8 -3 25 3 39 14 20 16 22 23 14 47 -8
22 -18 30 -41 32 -19 2 -36 -3 -44 -12z"/>
<path d="M6657 3616 c-31 -13 -77 -40 -100 -59 -55 -45 -107 -141 -114 -210
-5 -51 -6 -53 -33 -49 -29 4 -44 -15 -34 -43 7 -18 51 -20 56 -3 3 7 10 -9 17
-36 17 -67 36 -101 87 -156 91 -98 247 -132 372 -83 41 17 52 18 52 7 0 -8 7
-14 16 -14 10 0 14 7 12 23 -2 15 11 36 39 65 23 24 48 56 55 72 9 22 15 26
25 18 10 -8 8 -15 -12 -34 -28 -26 -34 -74 -10 -94 10 -8 13 -21 9 -37 -5 -20
-3 -24 10 -21 9 1 17 7 16 12 -1 5 14 14 32 20 62 21 77 103 23 128 -17 8 -24
17 -20 28 6 20 -19 45 -35 35 -12 -8 -12 -11 1 59 26 142 -56 299 -190 363
-82 39 -194 43 -274 9z"/>
<path d="M5218 3364 c-8 -18 -9 -31 -2 -42 8 -12 5 -21 -15 -38 -22 -19 -24
-25 -13 -48 22 -49 90 -25 80 29 -7 37 20 50 49 23 17 -16 25 -18 42 -9 38 21
16 78 -26 69 -10 -2 -26 7 -36 19 -25 32 -64 30 -79 -3z"/>
<path d="M4303 3367 c3 -9 -9 -17 -37 -25 -62 -16 -136 -71 -178 -133 -44 -64
-73 -164 -64 -221 6 -35 4 -39 -11 -34 -28 9 -46 -9 -41 -38 3 -15 0 -31 -8
-37 -19 -16 -17 -36 5 -56 16 -13 17 -20 9 -39 -8 -17 -8 -31 0 -49 11 -24 10
-25 -19 -25 -16 0 -45 -7 -64 -14 -31 -13 -35 -13 -35 0 0 7 -6 14 -13 14 -21
0 -28 -12 -15 -27 9 -11 7 -17 -10 -29 -12 -8 -34 -36 -49 -61 -22 -38 -27
-59 -27 -114 0 -58 4 -74 31 -117 29 -48 30 -50 11 -55 -31 -9 -20 -51 15 -55
25 -3 32 5 28 31 0 4 2 7 5 7 5 0 45 -19 52 -26 2 -1 -6 -12 -17 -23 -26 -26
-27 -53 -3 -74 43 -39 108 6 84 58 -11 24 -11 25 31 25 71 1 137 40 191 115
12 16 16 17 30 6 22 -19 48 -6 44 21 -2 15 -11 24 -25 26 -21 3 -23 9 -23 60
-1 92 -55 181 -132 213 l-29 12 21 19 c11 10 20 28 20 38 0 20 -33 60 -49 60
-5 0 -7 9 -4 20 3 11 -1 27 -8 36 -10 13 -10 17 1 24 11 7 22 -5 44 -46 38
-72 112 -137 184 -164 46 -18 73 -21 137 -18 44 3 88 8 99 13 16 7 17 6 7 -13
-23 -42 25 -85 69 -62 11 6 20 17 20 24 0 11 10 13 40 9 35 -5 41 -3 48 18 13
33 3 58 -24 65 -31 8 -55 -2 -61 -25 -4 -15 -8 -17 -27 -8 -23 11 -23 11 13
38 46 33 89 83 109 129 9 19 18 37 19 39 2 2 12 -4 22 -13 43 -39 92 17 52 58
-19 18 -24 19 -43 7 -20 -13 -21 -12 -15 27 4 22 3 60 -2 86 -8 41 -7 46 10
46 12 0 19 7 19 18 0 26 -10 33 -29 22 -13 -6 -21 0 -38 30 -20 34 -21 38 -5
33 10 -2 29 5 42 15 21 17 23 24 15 48 -17 49 -95 42 -95 -8 0 -18 -4 -16 -39
11 -57 45 -121 71 -196 78 -36 3 -68 10 -71 14 -8 14 -27 10 -21 -4z"/>
<path d="M4814 3148 c-53 -25 -55 -95 -5 -126 26 -16 28 -19 15 -37 -8 -10
-14 -33 -14 -51 0 -39 42 -78 77 -71 27 5 30 -5 7 -24 -31 -26 -67 -113 -72
-177 -4 -58 -6 -61 -22 -47 -31 28 -70 12 -70 -30 0 -15 -9 -24 -32 -30 -19
-6 -39 -22 -48 -38 -14 -25 -13 -30 1 -56 l17 -29 -82 -4 c-62 -3 -93 -11
-133 -31 l-52 -26 5 29 c5 22 0 34 -19 54 -31 31 -66 33 -95 6 -44 -41 -15
-120 44 -120 l25 0 -24 -32 c-52 -69 -70 -120 -75 -204 -4 -69 -1 -89 20 -141
l25 -61 -38 25 c-21 14 -59 28 -84 31 -28 3 -44 9 -42 16 3 6 8 18 12 27 7 19
-19 49 -44 49 -39 0 -57 -60 -23 -79 15 -9 14 -11 -8 -19 -19 -7 -27 -6 -33 4
-4 8 -15 14 -24 14 -11 0 -14 -6 -9 -24 4 -18 0 -28 -18 -39 -37 -25 -76 -112
-76 -171 1 -198 239 -299 386 -164 19 16 22 17 27 4 7 -19 37 -10 37 10 0 8
-6 17 -14 20 -12 5 -12 11 1 42 16 37 14 146 -2 187 -6 15 1 12 26 -12 48 -46
121 -75 209 -83 41 -4 67 -8 58 -9 -21 -1 -38 -31 -38 -65 0 -36 35 -69 67
-63 19 4 23 1 17 -12 -3 -9 -9 -26 -11 -38 -3 -13 -12 -23 -19 -23 -8 0 -14
-4 -14 -10 0 -5 5 -10 10 -10 6 0 28 -18 49 -40 27 -29 46 -40 67 -40 64 0
124 68 110 124 -3 14 -17 38 -30 53 -20 23 -32 28 -73 28 l-48 0 0 34 c0 28
-6 39 -34 58 -27 18 -30 23 -14 23 11 0 42 11 69 25 27 14 50 25 52 25 1 0 2
-11 2 -25 0 -32 32 -50 61 -35 29 16 23 74 -8 78 -22 3 -31 17 -15 24 20 9 56
62 77 114 14 33 25 52 25 43 0 -9 9 -27 20 -41 14 -18 16 -28 8 -36 -17 -17
-1 -44 24 -40 15 2 23 10 23 23 0 11 12 28 28 38 29 18 50 58 41 81 -3 7 2 16
10 19 9 4 16 13 16 20 0 8 11 19 24 25 13 6 27 20 31 31 8 25 18 26 35 6 21
-25 77 -19 96 10 9 14 23 25 31 25 16 0 14 21 -2 22 -6 1 -18 14 -27 29 -14
23 -25 29 -51 29 -34 0 -67 -24 -67 -50 0 -9 -8 -6 -23 8 -14 13 -36 22 -54
22 -26 0 -30 3 -26 20 11 42 -49 69 -77 35 -18 -22 -4 -64 25 -71 20 -5 23 -9
15 -25 -14 -25 -3 -66 22 -83 25 -18 15 -40 -12 -26 -28 15 -55 12 -82 -10
l-25 -19 -5 72 c-4 57 -12 86 -37 134 -39 72 -68 102 -139 141 l-53 29 25 17
c31 20 42 56 26 85 -9 17 -8 21 4 21 8 0 21 9 29 21 15 20 15 20 22 -13 11
-51 49 -119 89 -160 23 -24 31 -38 22 -38 -18 0 -32 -38 -18 -52 16 -16 47 -4
50 19 3 21 5 21 25 8 67 -44 203 -53 286 -19 18 8 34 14 35 14 1 0 0 -15 -2
-34 -7 -64 63 -101 108 -56 39 39 15 109 -39 113 -27 2 -26 8 5 30 25 18 26
18 39 0 11 -14 18 -16 32 -7 24 15 23 36 -3 49 -19 9 -20 13 -9 28 11 15 13
16 19 2 3 -8 14 -15 25 -15 12 0 21 -9 25 -24 10 -42 69 -45 82 -4 8 27 -24
61 -52 54 -16 -4 -23 -1 -27 15 -4 16 -11 20 -27 16 -17 -4 -20 -2 -15 11 17
45 27 120 21 163 -6 41 -4 49 9 49 9 0 18 7 22 16 7 20 -17 37 -33 23 -8 -7
-21 6 -42 44 -56 99 -158 163 -270 169 -46 3 -50 5 -49 28 2 19 -4 26 -21 28
-27 4 -40 -22 -22 -43 10 -12 9 -15 -4 -15 -9 0 -16 5 -16 11 0 6 -6 9 -12 6
-7 -2 -12 -9 -11 -16 2 -6 -19 -22 -47 -36 l-50 -25 6 28 c7 33 -27 82 -57 82
-20 0 -20 0 0 26 12 15 21 33 21 40 0 26 -23 62 -47 73 -28 13 -31 13 -59 -1z"/>
<path d="M7244 3018 c-22 -10 -44 -47 -44 -74 0 -9 13 -28 28 -44 20 -20 26
-33 20 -43 -11 -20 17 -48 38 -40 11 4 14 14 10 34 -4 20 -1 29 8 29 18 0 43
30 51 62 6 22 1 33 -23 58 -32 31 -52 36 -88 18z"/>
<path d="M3867 2974 c-18 -18 -5 -34 28 -34 37 0 47 13 18 24 -10 3 -23 8 -29
11 -5 3 -13 2 -17 -1z"/>
<path d="M7401 2911 c-6 -4 -11 -12 -10 -17 1 -5 -1 -17 -6 -27 -9 -21 8 -43
25 -32 6 4 10 16 7 26 -3 11 -1 19 4 19 11 0 12 27 1 34 -4 2 -14 1 -21 -3z"/>
<path d="M7565 2880 c-8 -13 3 -30 20 -30 7 0 16 -11 19 -24 10 -41 78 -39 89
3 11 43 -49 81 -80 50 -8 -8 -13 -8 -17 0 -9 14 -23 14 -31 1z"/>
<path d="M7438 2789 c-38 -22 -11 -87 32 -76 16 4 20 0 20 -19 0 -31 33 -64
64 -64 13 0 26 -7 30 -15 6 -17 32 -20 42 -4 3 6 -1 18 -9 26 -12 12 -13 21
-5 39 21 46 -49 105 -87 74 -12 -10 -15 -10 -15 2 0 16 -31 48 -46 48 -5 0
-17 -5 -26 -11z"/>
<path d="M4685 2752 c3 -7 5 -22 5 -33 0 -27 43 -53 68 -40 28 15 35 40 17 67
-12 18 -23 23 -55 21 -30 -1 -39 -5 -35 -15z"/>
<path d="M5570 2690 c0 -11 5 -20 10 -20 7 0 7 -7 -1 -21 -9 -18 -7 -25 9 -41
34 -35 84 0 66 46 -3 9 -17 19 -30 22 -13 3 -24 12 -24 20 0 8 -7 14 -15 14
-8 0 -15 -9 -15 -20z"/>
<path d="M4395 2585 c-14 -13 -25 -31 -25 -38 0 -8 -7 -17 -15 -21 -18 -6 -21
-30 -3 -24 7 3 23 -8 36 -24 31 -37 82 -39 117 -3 14 13 25 30 25 38 0 9 8 13
23 10 32 -6 52 19 37 46 -12 24 -33 27 -52 7 -12 -12 -18 -10 -37 10 -30 32
-75 31 -106 -1z"/>
<path d="M5781 2594 c-18 -13 -22 -24 -19 -50 4 -33 3 -34 -32 -34 -51 0 -97
-32 -109 -75 -21 -78 30 -145 111 -145 66 0 109 55 105 137 -1 37 3 55 21 77
27 35 28 46 1 80 -24 30 -45 33 -78 10z"/>
<path d="M5515 2330 c-3 -5 -4 -14 0 -19 3 -5 1 -12 -5 -16 -14 -9 -12 -52 3
-58 31 -11 66 40 38 57 -5 3 -7 15 -4 26 6 21 -20 29 -32 10z"/>
<path d="M4057 2213 c-4 -3 -7 -13 -7 -21 0 -25 -42 -50 -76 -45 -36 6 -68
-20 -61 -48 3 -12 -1 -19 -16 -21 -48 -7 -47 -69 2 -76 15 -3 25 4 34 25 9 21
18 27 35 25 16 -3 27 5 40 27 9 17 25 31 35 31 11 0 21 8 23 18 6 20 57 48 62
32 6 -16 59 -12 66 6 14 37 -33 71 -61 43 -8 -8 -13 -8 -17 0 -8 12 -49 15
-59 4z"/>
<path d="M7059 2205 c-15 -8 -29 -26 -33 -39 -19 -75 79 -121 125 -59 8 10 21
18 29 18 8 0 16 9 18 19 3 15 0 18 -17 13 -13 -3 -21 0 -21 7 0 16 -29 42 -55
49 -11 3 -32 0 -46 -8z"/>
<path d="M6712 2198 c-18 -18 -15 -32 14 -57 l26 -23 -30 -18 c-17 -10 -42
-36 -56 -57 -15 -21 -26 -31 -26 -22 0 27 -40 69 -65 69 -19 0 -22 4 -18 21 6
23 -12 40 -35 32 -9 -4 -12 -15 -8 -33 3 -20 -1 -33 -14 -45 -11 -10 -20 -29
-20 -42 0 -26 -3 -27 -31 -13 -13 8 -25 7 -41 -2 -13 -7 -31 -11 -40 -9 -10 1
-18 -3 -18 -8 0 -6 5 -11 10 -11 6 0 10 -11 10 -23 0 -30 29 -57 62 -57 25 0
58 27 58 48 0 8 11 6 35 -5 30 -14 38 -15 62 -3 16 8 32 16 37 18 4 3 5 -5 1
-17 -11 -37 7 -111 39 -160 l32 -47 -28 4 c-66 10 -128 -44 -128 -110 0 -122
134 -168 209 -72 23 29 26 83 7 127 -7 15 -5 16 19 7 38 -15 130 -12 170 4 23
10 34 11 32 4 -1 -7 7 -14 17 -16 15 -3 18 0 13 19 -4 16 3 33 27 60 33 39 56
96 56 140 0 21 5 24 37 24 35 0 38 2 41 32 2 24 -2 34 -17 43 -23 12 -61 -2
-61 -23 -1 -7 -12 9 -25 35 -30 56 -86 105 -140 119 -22 6 -68 9 -104 5 l-63
-5 6 25 c11 42 -24 70 -52 42z"/>
<path d="M4210 2142 c0 -4 -10 -12 -22 -17 -28 -12 -32 -62 -5 -79 33 -21 69
22 51 62 -4 9 -6 23 -5 30 1 6 -3 12 -9 12 -5 0 -10 -3 -10 -8z"/>
<path d="M3708 2103 c-32 -5 -44 -31 -23 -52 18 -19 51 -3 49 23 -1 9 2 16 7
16 5 0 9 5 9 10 0 6 -3 9 -7 9 -5 -1 -20 -4 -35 -6z"/>
<path d="M3765 1991 c-3 -6 2 -14 10 -19 13 -7 14 -14 5 -36 -22 -59 37 -116
99 -95 56 20 70 88 26 129 -20 19 -32 22 -65 17 -22 -3 -40 -1 -40 4 0 12 -27
12 -35 0z"/>
<path d="M6062 1961 c-29 -10 -73 -32 -97 -50 -24 -17 -50 -30 -57 -29 -8 2
-12 -4 -10 -15 2 -10 -6 -31 -18 -47 -57 -80 -69 -211 -30 -315 28 -71 101
-149 175 -185 42 -21 64 -25 145 -25 81 0 103 4 145 25 74 36 147 114 175 185
23 61 31 167 16 212 -7 20 -5 22 29 16 43 -7 75 17 75 57 0 72 -100 81 -122
11 -2 -9 -17 5 -40 36 -86 120 -247 172 -386 124z"/>
<path d="M4516 1698 c-15 -21 -16 -21 -35 -4 -27 24 -70 17 -94 -16 -18 -24
-18 -30 -7 -57 7 -17 18 -31 24 -31 6 0 3 -5 -6 -11 -35 -20 -11 -77 27 -63
12 5 16 15 13 35 -4 23 0 28 25 33 20 4 32 15 40 35 9 25 13 27 29 18 37 -24
76 34 48 69 -18 21 -47 17 -64 -8z"/>
<path d="M6818 1593 c-47 -29 -60 -81 -33 -133 19 -37 43 -50 92 -50 30 0 46
7 66 28 24 25 27 35 25 95 -1 37 -5 67 -10 67 -4 0 -8 -5 -8 -11 0 -5 -10 -3
-22 5 -29 21 -76 20 -110 -1z"/>
</g>
</svg>
